<ttFont>
<head>
    <!-- Most of this table will be recalculated by the compiler -->
    <tableVersion value="1.0"/>
    <fontRevision value="0.0"/>
    <checkSumAdjustment value="0x67fd657f"/>
    <magicNumber value="0x5f0f3cf5"/>
    <flags value="00000000 00000011"/>
    <unitsPerEm value="2048"/>
    <created value="Thu May  4 15:32:32 2017"/>
    <modified value="Thu May  4 22:32:36 2017"/>
    <xMin value="-33"/>
    <yMin value="-594"/>
    <xMax value="1687"/>
    <yMax value="2304"/>
<macStyle value="00000000 00000010"/>
    <lowestRecPPEM value="3"/>
    <fontDirectionHint value="2"/>
    <indexToLocFormat value="0"/>
    <glyphDataFormat value="0"/>
  </head>
          <CharString index="0">
            686 -19 rmoveto
            261 176 152 269 48 hvcurveto
            -25 callsubr
            -26 -150 rlineto
            -7 -41 -3 -42 -41 vvcurveto
            -254 174 -175 261 vhcurveto
            73 973 84 callsubr
            -29 -2 -33 -4 -30 hvcurveto
            -25 -141 24 callsubr
            31 3 32 6 39 -90 callsubr
            return
          </CharString>
          <CharString index="1">
            1258 524 rmoveto
            -9 callsubr
            245 callgsubr
            -308 197 -210 289 305 197 193 361 65 vhcurveto
            -553 -387 rmoveto
            -198 -124 142 229 56 4 48 10 60 hvcurveto
            41 225 rlineto
            269 47 133 140 194 161 callgsubr
            -274 -49 -134 -148 -196 hhcurveto
            return
          </CharString>
          <CharString index="2">
            rmoveto
            -9 -51 -4 -41 -38 vvcurveto
            -281 191 -182 287 280 197 178 304 54 vhcurveto
            176 991 -5 callgsubr
            -171 -969 rlineto
            -208 -38 -137 -129 -179 hhcurveto
            -183 -123 121 192 25 4 45 7 38 hvcurveto
            156 885 -8 callsubr
            return
          </CharString>
          <CharString index="3">
            rmoveto
            150 callgsubr
            674 -41 callgsubr
            -852 -98 callgsubr
            852 hlineto
            return
          </CharString>
          <CharString index="4">
            82 callgsubr
            -38 -219 rlineto
            -12 hlineto
            151 -32 -123 86 -181 hhcurveto
            -230 -172 -163 -261 -45 hvcurveto
            -21 -122 rlineto
            -7 -40 -6 -64 -44 vvcurveto
            -235 159 -170 218 149 127 78 119 240 callgsubr
            -32 -182 rlineto
            -189 -35 -106 -95 -179 hhcurveto
            -149 -112 75 100 -2 hvcurveto
            13 -168 -18 vlineto
            -181 175 -131 242 282 170 142 272 48 vhcurveto
            -97 441 rmoveto
            -172 -31 -125 -117 -152 hhcurveto
            -166 -104 109 176 25 5 51 6 35 hvcurveto
            17 95 rlineto
            184 34 117 114 154 hhcurveto
            163 113 -116 -166 -23 -3 -33 -6 -34 hvcurveto
            endchar
          </CharString>
          <CharString index="5">
            277 -386 rmoveto
            196 88 71 275 148 hvcurveto
            607 1125 rlineto
            -190 hlineto
            -461 -908 rlineto
            -13 hlineto
            -146 908 -8 callsubr
            208 -1092 -30 -59 rlineto
            -135 -73 -50 -37 -96 hhcurveto
            -28 -30 2 2 -9 hvcurveto
            -25 -149 rlineto
            -2 13 41 -1 26 hhcurveto
            return
          </CharString>
          <CharString index="6">
            584 1286 rmoveto
            284 hlineto
            164 93 -86 -142 -1 hvcurveto
            -24 -3 -27 -3 -17 vhcurveto
            -163 -27 -129 -103 -207 hhcurveto
            -271 hlineto
            -128 -724 rmoveto
            102 575 rlineto
            257 hlineto
            23 33 1 1 17 hvcurveto
            180 -577 175 callgsubr
            -194 602 184 46 125 136 30 187 rlinecurve
            5 33 2 32 30 vvcurveto
            234 1 -156 143 -247 hhcurveto
            -470 -98 callgsubr
            return
          </CharString>
          <CharString index="7">
            277 1071 rmoveto
            -6 -17 -6 -19 -4 -20 rrcurveto
            181 hlineto
            4 10 3 9 4 10 rrcurveto
            172 71 127 90 167 hhcurveto
            209 129 -136 -245 -33 -2 -38 -4 -40 hvcurveto
            -570 hlineto
            -27 -157 rlineto
            573 hlineto
            -7 -35 -9 -44 -10 -31 rrcurveto
            -264 -73 -152 -145 -210 hhcurveto
            -205 -116 113 198 -1 hvcurveto
            7 0 5 1 4 vhcurveto
            -179 hlineto
            -1 -8 0 -21 -3 vvcurveto
            -287 188 -176 313 290 204 169 317 98 vhcurveto
            21 56 25 132 12 69 rrcurveto
            15 87 6 70 64 vvcurveto
            341 -187 200 -320 -261 -205 -149 -255 -86 vhcurveto
            return
          </CharString>
          <CharString index="8">
            rlineto
            -293 hlineto
            202 1129 rlineto
            293 hlineto
            25 157 rlineto
            -760 hlineto
            -26 -157 rlineto
            292 hlineto
            -202 -1129 rlineto
            -292 hlineto
            -26 -157 rlineto
            return
          </CharString>
          <CharString index="9">
            rmoveto
            144 callgsubr
            154 callsubr
            return
          </CharString>
          <CharString index="10">
            -60 callsubr
            58 -68 -68 -58 -58 -51 callsubr
            return
          </CharString>
          <CharString index="11">
            719 1103 rmoveto
            -234 -171 -158 -256 -43 hvcurveto
            -29 -175 rlineto
            -6 -32 -5 -55 -51 vvcurveto
            -241 146 -153 232 146 127 83 126 240 callgsubr
            -34 -191 rlineto
            167 hlineto
            267 1511 -35 callsubr
            -114 -644 rlineto
            -9 hlineto
            143 -26 -142 93 -163 hhcurveto
            22 -156 rmoveto
            161 118 -120 -165 -16 -2 -19 -4 -29 hvcurveto
            -29 -161 rlineto
            -183 -33 -123 -111 -173 hhcurveto
            -154 -97 104 164 35 3 41 4 23 hvcurveto
            25 145 rlineto
            191 35 104 101 165 hhcurveto
            return
          </CharString>
          <CharString index="12">
            835 -31 rmoveto
            270 159 175 372 71 hvcurveto
            2 11 37 197 2 13 rrcurveto
            15 86 5 79 78 vvcurveto
            309 -146 184 -244 -247 -168 -185 -345 -66 vhcurveto
            -1 -7 -24 -125 -1 -7 rrcurveto
            -154 hlineto
            113 639 rlineto
            -153 -98 callgsubr
            153 hlineto
            114 642 206 callsubr
            -12 -74 -2 -34 -88 vvcurveto
            -287 150 -190 225 vhcurveto
            399 998 rmoveto
            -61 -6 -80 -9 -56 vhcurveto
            -2 -9 -34 -197 -2 -8 rrcurveto
            -284 -52 -105 -136 -168 hhcurveto
            -146 -93 129 206 82 5 51 15 88 hvcurveto
            2 10 35 190 2 8 rrcurveto
            270 51 105 137 164 hhcurveto
            148 90 -128 -212 hvcurveto
            return
          </CharString>
          <CharString index="13">
            rmoveto
            303 197 193 361 64 hvcurveto
            30 172 rlineto
            17 88 10 89 71 vvcurveto
            124 -30 105 -58 87 vhcurveto
            1 1 4 1 vvcurveto
            10 hlineto
            123 -9 94 65 42 124 11 28 13 80 23 122 rrcurveto
            -148 hlineto
            -24 -136 rlineto
            -97 -18 -54 -50 -85 -133 -68 80 -187 hhcurveto
            -291 -207 -202 -346 -62 hvcurveto
            -41 -232 rlineto
            -11 -52 -5 -62 -91 vvcurveto
            -309 196 -209 288 vhcurveto
            17 167 rmoveto
            -197 -127 144 226 49 5 47 11 69 hvcurveto
            253 callsubr
            267 49 132 142 191 hhcurveto
            195 128 -143 -220 -59 -3 -44 -8 -47 -23 callsubr
            -276 -50 -130 -146 -194 hhcurveto
            return
          </CharString>
          <CharString index="14">
            -197 -35 -111 -84 callgsubr
            return
          </CharString>
          <CharString index="15">
            160 callsubr
            -360 hlineto
            168 944 149 callgsubr
            -23 31 callgsubr
            -143 -803 rlineto
            -372 hlineto
            -24 -141 rlineto
            return
          </CharString>
          <CharString index="16">
            592 1291 rmoveto
            254 hlineto
            167 88 -72 -135 -1 hvcurveto
            -157 -1 -129 -107 -191 hhcurveto
            -272 hlineto
            -119 -667 rmoveto
            94 520 rlineto
            278 hlineto
            196 108 -84 -153 -172 -144 -111 -222 hvcurveto
            -510 -153 rmoveto
            518 hlineto
            329 208 164 259 2 hvcurveto
            1 168 -100 125 -159 30 2 11 rcurveline
            172 35 122 147 2 175 rrcurveto
            205 1 -147 124 -246 hhcurveto
            -451 hlineto
            return
          </CharString>
          <CharString index="17">
            hvcurveto
            24 137 -74 callgsubr
            return
          </CharString>
          <CharString index="18">
            rmoveto
            -24 -128 rlineto
            -145 -26 -129 -107 -147 hhcurveto
            -129 -82 70 110 1 hvcurveto
            1 126 103 72 183 1 rrcurveto
            193 -354 rmoveto
            -27 -156 rlineto
            162 hlineto
            -9 callgsubr
            18 96 3 27 46 vvcurveto
            183 -150 121 -226 -221 -176 -120 -173 -34 71 callgsubr
            87 28 100 59 117 hhcurveto
            135 87 -71 -111 -22 -2 -17 -6 -33 hvcurveto
            -10 -55 -270 -2 -300 -3 -166 -126 2 -225 rlinecurve
            -181 2 133 -124 192 hhcurveto
            143 122 67 107 54 hvcurveto
            endchar
          </CharString>
          <CharString index="19">
            rmoveto
            8 50 5 56 44 vvcurveto
            250 -172 166 -262 -220 -195 -135 -178 -33 71 callgsubr
            92 30 111 66 118 hhcurveto
            182 102 -104 -184 -14 -3 -31 -3 -12 hvcurveto
            -490 hlineto
            -22 -135 rlineto
            494 hlineto
            -9 -48 rlineto
            -185 -35 -118 -105 -171 hhcurveto
            -152 -112 88 118 hvcurveto
            14 -166 -31 vlineto
            -199 176 -142 251 263 180 151 255 46 vhcurveto
            return
          </CharString>
          <CharString index="20">
            rmoveto
            -17 -95 23 callsubr
            50 3 44 8 52 hvcurveto
            28 157 rmoveto
            16 86 24 callgsubr
            -37 -4 -54 -5 -41 hvcurveto
            -909 -118 rmoveto
            69 callsubr
            -88 vvcurveto
            -308 197 -210 289 305 197 193 361 65 vhcurveto
            -9 callsubr
            endchar
          </CharString>
          <CharString index="21">
            rmoveto
            -8 -44 24 callsubr
            20 1 21 3 22 hvcurveto
            22 138 rmoveto
            7 38 25 callgsubr
            -16 -1 -18 -1 -17 hvcurveto
            -778 -85 rmoveto
            -15 callgsubr
            -25 callsubr
            endchar
          </CharString>
          <CharString index="22">
            rmoveto
            136 25 74 81 96 hhcurveto
            73 38 -44 -84 -24 -2 -24 -5 -26 hvcurveto
            -132 -748 254 callsubr
            129 734 rlineto
            136 25 73 80 94 hhcurveto
            72 38 -44 -84 -24 -3 -24 -4 -27 hvcurveto
            -132 -747 253 callgsubr
            137 781 rlineto
            6 36 4 35 30 vvcurveto
            140 -77 83 -133 -101 -79 -60 -113 -48 vhcurveto
            -18 hlineto
            106 -7 -69 67 -105 hhcurveto
            -97 -81 -63 -110 -45 hvcurveto
            -18 hlineto
            26 153 rlineto
            -150 -51 callgsubr
            153 hlineto
            return
          </CharString>
          <CharString index="23">
            rmoveto
            269 47 133 140 194 hhcurveto
            197 129 -144 -219 -43 -5 -65 -7 -42 hvcurveto
            -42 -234 23 callsubr
            56 4 48 10 60 hvcurveto
            904 84 rmoveto
            9 64 5 63 61 64 callgsubr
            -54 -4 -63 -88 vvcurveto
            -308 197 -210 289 305 197 193 361 65 vhcurveto
            endchar
          </CharString>
          <CharString index="24">
            -1443 rlineto
            return
          </CharString>
          <CharString index="25">
            35 hlineto
            145 86 86 171 30 hvcurveto
            21 127 rlineto
            -147 hlineto
            -18 -112 rlineto
            -94 -17 -51 -49 -80 hhcurveto
            -158 hlineto
            -173 -977 rlineto
            -202 -37 -135 -127 -176 hhcurveto
            -182 -120 121 185 26 5 43 6 37 hvcurveto
            158 894 -8 callsubr
            -156 -886 rlineto
            -9 -53 -4 -40 -36 vvcurveto
            -277 187 -181 285 return
          </CharString>
          <CharString index="26">
            -164 -75 callsubr
            return
          </CharString>
          <CharString index="27">
            750 -18 rmoveto
            228 161 155 265 47 hvcurveto
            34 195 rlineto
            9 46 2 29 32 vvcurveto
            245 -142 154 -228 -138 -119 -67 -111 -60 vhcurveto
            -19 hlineto
            104 586 239 callsubr
            -267 -1511 208 callsubr
            253 callsubr
            14 hlineto
            -152 35 124 -91 174 hhcurveto
            -28 155 rmoveto
            -164 -117 121 160 25 2 25 5 25 hvcurveto
            29 162 rlineto
            175 32 128 120 155 hhcurveto
            167 99 -99 -166 -36 -2 -32 -5 -28 hvcurveto
            -29 -166 rlineto
            -178 -32 -113 -108 -155 hhcurveto
            return
          </CharString>
          <CharString index="28">
            1113 127 callsubr
            -175 hlineto
            -111 -625 rlineto
            -609 hlineto
            110 -6 callsubr
            175 hlineto
            117 656 rlineto
            609 hlineto
            -116 -656 rlineto
            return
          </CharString>
          <CharString index="29">
            -169 hlineto
            -115 -38 -104 -68 -132 hhcurveto
            -175 -99 103 183 37 6 52 7 41 hvcurveto
            12 66 rlineto
            228 41 108 112 183 hhcurveto
            152 106 -93 -131 hvcurveto
            -5 return
          </CharString>
          <CharString index="30">
            252 callgsubr
            -299 -870 rlineto
            -18 hlineto
            -23 869 187 callsubr
            -327 -869 rlineto
            -18 hlineto
            -4 870 184 callgsubr
            42 -1085 185 callgsubr
            336 846 rlineto
            12 hlineto
            31 -846 175 callsubr
            return
          </CharString>
          <CharString index="31">
            356 554 rmoveto
            94 584 rlineto
            13 hlineto
            162 -799 rlineto
            138 hlineto
            445 799 rlineto
            13 hlineto
            -113 -584 -99 -554 rlineto
            158 -53 callsubr
            -206 hlineto
            -485 -893 rlineto
            -12 hlineto
            -173 893 rlineto
            -192 66 callsubr
            return
          </CharString>
          <CharString index="32">
            hhcurveto
            -171 -112 114 173 return
          </CharString>
          <CharString index="33">
            rmoveto
            -193 hlineto
            -490 -878 rlineto
            -8 hlineto
            -268 878 rlineto
            -185 hlineto
            341 -1079 rlineto
            -149 -98 -78 -54 -106 hhcurveto
            -29 -35 4 6 -18 hvcurveto
            -24 -170 rlineto
            -6 15 48 -5 36 hhcurveto
            196 122 99 291 165 hvcurveto
            return
          </CharString>
          <CharString index="34">
            rmoveto
            142 21 94 100 127 vvcurveto
            173 -162 119 -239 -229 -181 -128 -186 -33 vhcurveto
            165 hlineto
            103 36 102 65 130 hhcurveto
            144 96 -66 -99 -102 -96 -66 -148 hvcurveto
            -167 hlineto
            -23 -135 rlineto
            167 hlineto
            138 90 -64 -97 -117 -119 -87 -170 -171 -117 87 122 11 hvcurveto
            -162 -9 hlineto
            return
          </CharString>
          <CharString index="35">
            452 246 callgsubr
            177 hlineto
            92 518 rlineto
            289 hlineto
            358 215 203 332 238 -165 152 -258 hvcurveto
            -303 -157 rmoveto
            271 hlineto
            176 103 -91 -156 -228 -145 -136 -242 hvcurveto
            -272 hlineto
            return
          </CharString>
          <CharString index="36">
            160 callsubr
            -358 hlineto
            242 1370 149 callgsubr
            -24 31 callgsubr
            -219 -1229 rlineto
            -371 hlineto
            -24 -141 rlineto
            return
          </CharString>
          <CharString index="37">
            -54 callsubr
            403 hmoveto
            18 callgsubr
            endchar
          </CharString>
          <CharString index="38">
            rmoveto
            -99 -562 rlineto
            174 -53 callsubr
            -461 hlineto
            -356 -200 -187 -309 -164 94 -134 152 -55 hvcurveto
            -464 -594 rlineto
            206 hlineto
            436 562 rlineto
            9 154 rmoveto
            -153 -101 99 148 203 134 120 227 hvcurveto
            276 hlineto
            -102 -570 rlineto
            endchar
          </CharString>
          <CharString index="39">
            rmoveto
            -74 -409 -5 callgsubr
            -149 -83 69 111 139 112 90 176 hvcurveto
            196 -941 rmoveto
            56 callgsubr
            -389 hlineto
            -286 -169 -149 -225 -135 79 -106 127 -44 hvcurveto
            -395 -426 rlineto
            207 hlineto
            352 393 184 callsubr
            -70 -393 rlineto
            endchar
          </CharString>
          <CharString index="40">
            170 112 -114 -170 return
          </CharString>
          <CharString index="41">
            563 661 rmoveto
            159 hlineto
            180 117 -93 -145 -177 -136 -116 -209 -173 -136 105 136 4 0 13 1 2 hvcurveto
            -168 hlineto
            -1 -4 0 -41 -5 vvcurveto
            -215 199 -155 273 319 212 180 266 164 -104 123 -164 31 vhcurveto
            13 vlineto
            184 18 145 159 185 vvcurveto
            219 -177 145 -268 -250 -179 -130 -210 -39 vhcurveto
            168 hlineto
            114 31 111 70 149 hhcurveto
            173 109 -88 -139 -156 -136 -109 -195 hvcurveto
            -168 hlineto
            return
          </CharString>
          <CharString index="42">
            55 -63 -72 callgsubr
            return
          </CharString>
          <CharString index="43">
            228 1281 rlineto
            435 -41 callgsubr
            -1048 hlineto
            -26 -162 rlineto
            436 hlineto
            -228 159 callsubr
            return
          </CharString>
          <CharString index="44">
            rmoveto
            27 -94 9 -98 -114 vvcurveto
            -413 -3 -130 -230 -244 hhcurveto
            -158 -79 75 143 -1 hvcurveto
            33 3 44 7 37 vhcurveto
            109 617 214 callgsubr
            -109 -618 rlineto
            -7 -42 -6 -60 -36 vvcurveto
            -230 146 -119 254 353 193 295 501 4 vhcurveto
            1 120 -14 116 -24 73 rrcurveto
            endchar
          </CharString>
          <CharString index="45">
            rmoveto
            132 hlineto
            145 85 -88 -152 -220 -125 -130 -217 hvcurveto
            -126 hlineto
            106 -159 rmoveto
            339 190 191 340 231 -141 145 -222 hvcurveto
            -138 hlineto
            95 536 rlineto
            -165 -98 callgsubr
            1054 127 callsubr
            -164 85 callgsubr
          </CharString>
          <CharString index="46">
            667 -29 rmoveto
            355 186 244 477 81 hvcurveto
            16 96 rlineto
            370 63 -160 315 -379 hhcurveto
            -304 -182 -207 -272 -80 hvcurveto
            179 hlineto
            186 63 129 126 182 hhcurveto
            245 124 -215 -283 -55 hvcurveto
            -5 -29 rlineto
            -900 hlineto
            0 -22 -117 -3 -19 vhcurveto
            -378 -66 163 -294 370 hhcurveto
            12 166 rmoveto
            -252 -107 189 273 49 hvcurveto
            4 23 rlineto
            724 hlineto
            -2 -15 rlineto
            -304 -49 -132 -166 -235 hhcurveto
            return
          </CharString>
          <CharString index="47">
            -35 callgsubr
            70 -58 return
          </CharString>
          <CharString index="48">
            844 hlineto
            25 146 rlineto
            -624 hlineto
            2 13 763 799 21 127 rlineto
            -837 hlineto
            -25 -146 rlineto
            623 hlineto
            -2 -13 -769 -806 rlineto
            return
          </CharString>
          <CharString index="49">
            rmoveto
            10 hlineto
            -146 -817 rlineto
            158 140 callgsubr
            -160 hlineto
            -718 -814 rlineto
            -9 hlineto
            146 814 14 callsubr
            161 hlineto
            endchar
          </CharString>
          <CharString index="50">
            -4 -84 rlineto
            53 hlineto
            92 47 -24 -50 -47 -42 -25 -73 -39 -68 10 12 -31 40 callsubr
            50 hhcurveto
            149 51 callsubr
            return
          </CharString>
          <CharString index="51">
            -72 callgsubr
            404 hmoveto
            -61 callgsubr
            return
          </CharString>
          <CharString index="52">
            -41 callsubr
            55 return
          </CharString>
          <CharString index="53">
            rmoveto
            -50 callsubr
            return
          </CharString>
          <CharString index="54">
            hlineto
            -63 callgsubr
            return
          </CharString>
          <CharString index="55">
            152 callsubr
            212 226 rlineto
            15 hlineto
            132 -226 119 callgsubr
            -213 341 rlineto
            return
          </CharString>
          <CharString index="56">
            -70 -38 callsubr
            return
          </CharString>
          <CharString index="57">
            14 callgsubr
            -54 -55 -29 callsubr
            return
          </CharString>
          <CharString index="58">
            339 rlineto
            -28 callsubr
            return
          </CharString>
          <CharString index="59">
            rmoveto
            194 -36 callsubr
            return
          </CharString>
          <CharString index="60">
            rmoveto
            35 28 4 9 38 hvcurveto
            20 119 rlineto
            -3 -12 -22 -1 -22 hhcurveto
            -73 -53 46 64 73 42 55 151 120 hvcurveto
            97 76 63 112 28 151 27 151 rcurveline
            7 44 3 41 31 vvcurveto
            262 -176 173 -270 -248 -180 -160 -260 -46 vhcurveto
            -27 -150 rlineto
            -8 -40 -2 -38 -46 vvcurveto
            -256 175 -173 258 2 vhcurveto
            35 37 10 16 34 hvcurveto
            4 -12 rlineto
            -114 -67 -50 -69 -90 vvcurveto
            -110 96 -84 125 vhcurveto
            -92 1377 84 callsubr
            -35 -2 -31 -4 -26 hvcurveto
            -23 -141 rlineto
            -192 -32 -117 -114 -163 -75 callsubr
            23 3 29 6 50 180 callsubr
          </CharString>
          <CharString index="61">
            rmoveto
            -274 -49 -134 -148 -196 hhcurveto
            -107 -85 41 74 -56 hvcurveto
            664 819 rlineto
            11 -39 6 -43 -46 vvcurveto
            -16 callgsubr
            vhcurveto
            -688 104 232 callgsubr
            108 88 -44 -75 57 hvcurveto
            -665 -815 rlineto
            -11 41 -6 45 50 vvcurveto
            56 4 48 10 60 vhcurveto
            1026 771 rmoveto
            -149 hlineto
            -94 -115 rlineto
            93 -86 -124 52 -150 hhcurveto
            -290 -208 -203 -345 -60 hvcurveto
            245 callgsubr
            -105 23 -94 42 -77 vhcurveto
            -173 -212 206 callsubr
            90 110 rlineto
            -89 85 120 -51 143 hhcurveto
            305 197 193 361 65 hvcurveto
            244 callgsubr
            110 -23 96 -42 80 vhcurveto
            endchar
          </CharString>
          <CharString index="62">
            rmoveto
            334 -32 callsubr
            -133 25 callsubr
            return
          </CharString>
          <CharString index="63">
            897 1296 rmoveto
            324 -49 callsubr
            605 -211 rmoveto
            -190 hlineto
            -461 -908 rlineto
            -13 hlineto
            -146 908 -8 callsubr
            208 -1092 -30 -59 rlineto
            -135 -73 -50 -37 -96 hhcurveto
            -28 -30 2 2 -9 hvcurveto
            -25 -149 rlineto
            -2 13 41 -1 26 hhcurveto
            196 88 71 275 148 hvcurveto
            endchar
          </CharString>
          <CharString index="64">
            45 callsubr
            132 -227 119 callgsubr
            -213 342 rlineto
            endchar
          </CharString>
          <CharString index="65">
            rmoveto
            80 61 60 80 79 -61 60 -80 -80 -61 -60 -79 -80 61 -60 80 hvcurveto
            return
          </CharString>
          <CharString index="66">
            -7 callgsubr
            66 -55 return
          </CharString>
          <CharString index="67">
            197 callsubr
            198 146 rlineto
            13 hlineto
            146 130 callgsubr
            return
          </CharString>
          <CharString index="68">
            rmoveto
            -664 hlineto
            -24 -141 rlineto
            496 hlineto
            -163 -918 rlineto
            -145 -25 -79 -58 -174 hhcurveto
            -46 -125 5 10 -106 hvcurveto
            -26 -151 rlineto
            -12 118 109 -4 71 hhcurveto
            266 141 105 230 40 hvcurveto
            return
          </CharString>
          <CharString index="69">
            -70 -17 callgsubr
            return
          </CharString>
          <CharString index="70">
            903 -20 rmoveto
            184 118 147 307 56 hvcurveto
            19 102 11 104 85 vvcurveto
            136 -29 137 -48 87 vhcurveto
            -169 hlineto
            59 -111 27 -125 -148 vvcurveto
            -91 -12 -76 -17 -91 vhcurveto
            -212 -38 -68 -95 -104 hhcurveto
            -79 -37 58 112 30 3 42 7 41 hvcurveto
            61 347 189 callsubr
            -66 -367 rlineto
            -161 -29 -74 -102 -89 hhcurveto
            -86 -39 67 132 54 13 103 15 76 hvcurveto
            43 235 61 128 130 154 rrcurveto
            -176 hlineto
            -98 -123 -73 -158 -35 -181 rrcurveto
            -25 -121 -13 -106 -71 vvcurveto
            -220 91 -125 154 127 89 71 145 56 vhcurveto
            8 hlineto
            -134 8 83 -82 134 hhcurveto
            return
          </CharString>
          <CharString index="71">
            hlineto
            332 -22 callsubr
            return
          </CharString>
          <CharString index="72">
            rlineto
            -16 callsubr
            return
          </CharString>
          <CharString index="73">
            rmoveto
            -180 43 callsubr
            206 -339 rlineto
            return
          </CharString>
          <CharString index="74">
            hlineto
            -298 -339 rlineto
            return
          </CharString>
          <CharString index="75">
            342 70 callsubr
            -212 101 callgsubr
            return
          </CharString>
          <CharString index="76">
            rmoveto
            -288 hlineto
            318 687 rlineto
            92 hlineto
            592 6 rmoveto
            26 161 rlineto
            -797 hlineto
            -686 -83 callsubr
            182 hlineto
            201 435 rlineto
            332 hlineto
            -77 -435 rlineto
            591 -41 callgsubr
            -429 hlineto
            87 487 rlineto
            394 hlineto
            26 157 rlineto
            -393 hlineto
            86 476 rlineto
            endchar
          </CharString>
          <CharString index="77">
            631 -30 rmoveto
            253 155 136 262 45 hvcurveto
            191 1075 rlineto
            -673 hlineto
            -26 -157 rlineto
            495 hlineto
            -160 -895 rlineto
            -164 -29 -96 -89 -146 hhcurveto
            -147 -100 87 127 9 1 12 1 8 hvcurveto
            -166 hlineto
            -2 -17 -2 -16 -19 vvcurveto
            -210 169 -149 237 vhcurveto
            return
          </CharString>
          <CharString index="78">
            -66 -19 callgsubr
            return
          </CharString>
          <CharString index="79">
            -212 -33 callsubr
            return
          </CharString>
          <CharString index="80">
            rlineto
            -32 callgsubr
            return
          </CharString>
          <CharString index="81">
            -113 -18 107 callsubr
            -124 73 callsubr
            -33 125 -143 198 hhcurveto
            return
          </CharString>
          <CharString index="82">
            27 151 rlineto
            7 45 3 41 30 vvcurveto
            260 -174 175 -272 -247 -183 -161 -259 -45 vhcurveto
            return
          </CharString>
          <CharString index="83">
            156 callsubr
            634 hlineto
            24 145 rlineto
            -261 hlineto
            140 793 rlineto
            445 hlineto
            -37 -214 rlineto
            154 hlineto
            return
          </CharString>
          <CharString index="84">
            hvcurveto
            -42 -234 rlineto
            return
          </CharString>
          <CharString index="85">
            304 92 callgsubr
            return
          </CharString>
          <CharString index="86">
            vvcurveto
            270 -104 116 -238 vhcurveto
            -37 -139 rmoveto
            7 hlineto
            158 60 -67 -174 -44 -4 -57 -9 -74 hvcurveto
            -488 -54 -150 -261 -208 hhcurveto
            -7 hlineto
            endchar
          </CharString>
          <CharString index="87">
            -107 -184 -7 132 callsubr
            return
          </CharString>
          <CharString index="88">
            774 454 -103 callgsubr
            return
          </CharString>
          <CharString index="89">
            82 118 93 -66 55 -118 4 hvcurveto
            return
          </CharString>
          <CharString index="90">
            54 hlineto
            92 47 -24 -50 -47 -42 -25 -73 -39 -68 10 12 -32 94 callgsubr
            61 -10 50 hhcurveto
            148 102 -18 callsubr
            return
          </CharString>
          <CharString index="91">
            -170 hlineto
            return
          </CharString>
          <CharString index="92">
            112 636 rlineto
            194 35 123 119 161 hhcurveto
            138 90 -85 -140 -29 -4 -38 -8 -42 hvcurveto
            -172 -974 -27 callsubr
            177 1006 rlineto
            7 44 4 41 34 vvcurveto
            207 -139 132 -196 -160 -125 -81 -130 -54 vhcurveto
            -11 hlineto
            1 16 1 16 3 vvcurveto
            116 -63 52 -118 -36 -37 -5 -7 -22 vhcurveto
            -24 -141 rlineto
            3 15 13 2 20 hhcurveto
            53 29 -24 -53 -17 -3 -21 -4 -27 hvcurveto
            -143 -807 rlineto
            endchar
          </CharString>
          <CharString index="93">
            rmoveto
            63 55 56 65 66 -55 56 -63 -62 -55 -56 -66 -65 55 -56 62 hvcurveto
            -403 169 callsubr
            return
          </CharString>
          <CharString index="94">
            rmoveto
            68 58 59 return
          </CharString>
          <CharString index="95">
            932 747 rmoveto
            184 18 145 159 185 vvcurveto
            219 -177 145 -268 -250 -179 -130 -210 -39 vhcurveto
            168 hlineto
            114 31 111 70 149 hhcurveto
            173 109 -88 -139 -156 -136 -109 -195 hvcurveto
            -168 hlineto
            -27 -164 rlineto
            159 hlineto
            180 117 -93 -145 -177 -136 -116 -209 -173 -136 105 136 4 0 13 1 2 hvcurveto
            -168 hlineto
            -1 -4 0 -41 -5 vvcurveto
            return
          </CharString>
          <CharString index="96">
            525 hlineto
            23 134 rlineto
            -361 hlineto
            2 14 502 810 21 127 rlineto
            -510 hlineto
            -23 -134 rlineto
            353 hlineto
            -2 -14 -509 -817 rlineto
            -434 1323 128 callgsubr
            170 hlineto
            316 207 310 581 56 hvcurveto
            7 63 4 54 49 -21 callsubr
          </CharString>
          <CharString index="97">
            62 55 56 65 66 112 callsubr
            -29 callsubr
            return
          </CharString>
          <CharString index="98">
            244 callgsubr
            320 -195 209 -300 -290 -208 -203 -345 -60 vhcurveto
            return
          </CharString>
          <CharString index="99">
            rlineto
            -176 hlineto
            return
          </CharString>
          <CharString index="100">
            rmoveto
            86 41 -159 160 hhcurveto
            138 238 callgsubr
            7 hvcurveto
            -140 37 callsubr
            61 hhcurveto
            endchar
          </CharString>
          <CharString index="101">
            625 -39 callgsubr
            return
          </CharString>
          <CharString index="102">
            743 150 callsubr
            -212 -1086 53 callsubr
            450 rmoveto
            -68 callgsubr
            63 -55 callsubr
            -63 hvcurveto
            endchar
          </CharString>
          <CharString index="103">
            2 callgsubr
            endchar
          </CharString>
          <CharString index="104">
            503 159 rmoveto
            98 541 rlineto
            223 hlineto
            182 102 -78 -136 -195 -127 -132 -255 hvcurveto
            -99 699 rmoveto
            40 226 rlineto
            498 hlineto
            26 154 rlineto
            -496 hlineto
            36 205 -5 callgsubr
            -36 -205 rlineto
            -307 200 callsubr
            306 hlineto
            -191 -1084 rlineto
            444 hlineto
            342 204 211 289 223 -153 135 -264 hvcurveto
            endchar
          </CharString>
          <CharString index="105">
            502 145 rmoveto
            78 434 rlineto
            236 hlineto
            154 77 -60 -109 -161 -106 -104 -204 hvcurveto
            -132 577 rmoveto
            41 233 rlineto
            466 hlineto
            22 130 rlineto
            -465 hlineto
            75 426 -35 callsubr
            -75 -426 rlineto
            -269 hlineto
            -21 -130 rlineto
            267 hlineto
            -169 -955 rlineto
            416 hlineto
            324 170 174 245 192 -128 111 -246 hvcurveto
            endchar
          </CharString>
          <CharString index="106">
            -20 hvcurveto
            64 -93 rlineto
            111 39 65 81 96 vvcurveto
            107 -82 71 -120 -50 -52 -10 -18 -36 vhcurveto
            endchar
          </CharString>
          <CharString index="107">
            rmoveto
            211 138 146 277 48 hvcurveto
            186 1052 rlineto
            -540 hlineto
            -27 -160 rlineto
            374 hlineto
            -158 -881 rlineto
            -182 -32 -69 -84 -111 hhcurveto
            -87 -48 56 98 19 1 22 4 28 hvcurveto
            -165 hlineto
            -6 -36 -2 -33 -31 vvcurveto
            -183 103 -108 180 vhcurveto
            -477 32 rmoveto
            -63 callgsubr
            -171 85 callgsubr
          </CharString>
          <CharString index="108">
            rmoveto
            102 5 -135 167 hhcurveto
            124 89 99 139 5 hvcurveto
            -123 hlineto
            -78 -6 -34 -42 -54 -102 -6 135 -167 hhcurveto
            return
          </CharString>
          <CharString index="109">
            3 callsubr
            -15 return
          </CharString>
          <CharString index="110">
            565 -73 callsubr
            return
          </CharString>
          <CharString index="111">
            hhcurveto
            127 87 109 159 6 hvcurveto
            -124 hlineto
            173 callgsubr
            -32 160 -162 73 callgsubr
            5 35 50 59 hhcurveto
            endchar
          </CharString>
          <CharString index="112">
            15 callgsubr
            -200 hlineto
            return
          </CharString>
          <CharString index="113">
            56 -63 -62 -55 -56 41 callgsubr
            return
          </CharString>
          <CharString index="114">
            213 callgsubr
            -114 hhcurveto
            -125 34 callsubr
            85 callsubr
            199 hhcurveto
            return
          </CharString>
          <CharString index="115">
            239 callgsubr
            340 174 callgsubr
            -215 -200 rlineto
            -14 hlineto
            -144 44 callgsubr
            endchar
          </CharString>
          <CharString index="116">
            186 33 125 108 171 hhcurveto
            155 96 -105 -163 -31 -4 -42 -4 -26 hvcurveto
            return
          </CharString>
          <CharString index="117">
            53 68 67 51 -53 -69 -69 -51 -53 -67 hvcurveto
            -109 vmoveto
            124 101 104 127 127 -101 104 -124 -125 -101 -104 -127 -127 101 -104 125 hvcurveto
            endchar
          </CharString>
          <CharString index="118">
            rmoveto
            227 callsubr
            -83 114 callgsubr
            84 51 callgsubr
            return
          </CharString>
          <CharString index="119">
            -95 -15 -88 -67 -116 hhcurveto
            -114 -75 65 97 -5 hvcurveto
            -140 hlineto
            -164 -4 130 -114 201 hhcurveto
            return
          </CharString>
          <CharString index="120">
            hlineto
            -169 85 callsubr
            199 hhcurveto
            49 callgsubr
            return
          </CharString>
          <CharString index="121">
            rlineto
            -159 -51 callgsubr
            return
          </CharString>
          <CharString index="122">
            473 hmoveto
            -32 callgsubr
            166 937 rlineto
            477 hlineto
            24 145 rlineto
            -478 hlineto
            20 112 rlineto
            114 20 88 58 153 hhcurveto
            57 142 -11 -12 48 hvcurveto
            24 142 rlineto
            14 -53 -137 9 -60 hhcurveto
            -267 -147 -101 -216 -36 hvcurveto
            -20 -109 rlineto
            -291 107 callgsubr
            291 hlineto
            return
          </CharString>
          <CharString index="123">
            1360 rmoveto
            -67 -51 53 69 69 51 53 67 68 50 -53 -69 -69 -50 -53 -68 hvcurveto
            -109 vmoveto
            125 101 104 127 127 -101 104 -125 -124 return
          </CharString>
          <CharString index="124">
            194 callsubr
            -48 -49 -62 -61 48 -49 59 hvcurveto
            return
          </CharString>
          <CharString index="125">
            hvcurveto
            -108 -609 -27 callsubr
            107 return
          </CharString>
          <CharString index="126">
            hhcurveto
            -140 -86 -107 -184 -6 hvcurveto
            139 hlineto
            111 187 callgsubr
          </CharString>
          <CharString index="127">
            199 callsubr
            -177 hlineto
            return
          </CharString>
          <CharString index="128">
            -213 -33 callsubr
            return
          </CharString>
          <CharString index="129">
            -56 63 hvcurveto
            403 hmoveto
            63 54 56 66 65 -54 56 -63 84 callgsubr
            endchar
          </CharString>
          <CharString index="130">
            rlineto
            -274 -49 -134 -148 -196 hhcurveto
            -198 -124 142 229 return
          </CharString>
          <CharString index="131">
            rlineto
            -93 callsubr
            return
          </CharString>
          <CharString index="132">
            227 rlineto
            -186 hlineto
            214 -342 rlineto
            return
          </CharString>
          <CharString index="133">
            668 212 rmoveto
            -5 hlineto
            -163 1231 rlineto
            -180 hlineto
            219 -1443 175 callgsubr
            727 -59 callgsubr
            -184 hlineto
            return
          </CharString>
          <CharString index="134">
            1916 111 callsubr
            -578 224 callgsubr
            return
          </CharString>
          <CharString index="135">
            1370 -95 callgsubr
            return
          </CharString>
          <CharString index="136">
            109 181 6 hvcurveto
            return
          </CharString>
          <CharString index="137">
            hhcurveto
            -130 -78 81 40 callgsubr
            -151 205 hhcurveto
            return
          </CharString>
          <CharString index="138">
            -168 hlineto
            -89 -24 -111 -64 -128 hhcurveto
            -179 -108 119 181 18 hvcurveto
            4 6 60 2 7 vhcurveto
            741 hlineto
            12 87 rlineto
            1 9 9 70 12 vvcurveto
            246 26 -173 183 -259 hhcurveto
            -267 -189 -160 -257 -40 hvcurveto
            return
          </CharString>
          <CharString index="139">
            rmoveto
            10 38 27 4 29 hhcurveto
            54 32 -24 -40 -42 -39 -40 -64 -21 hvcurveto
            65 -74 rlineto
            104 34 62 74 91 vvcurveto
            89 -71 58 -104 -37 return
          </CharString>
          <CharString index="140">
            234 callgsubr
            -119 97 callsubr
            81 57 callgsubr
            return
          </CharString>
          <CharString index="141">
            -60 85 113 87 callsubr
            -169 return
          </CharString>
          <CharString index="142">
            188 callgsubr
            -139 hlineto
            -180 -33 return
          </CharString>
          <CharString index="143">
            rmoveto
            17 callsubr
            -178 -264 74 callsubr
            547 145 rmoveto
            55 callsubr
          </CharString>
          <CharString index="144">
            -43 callgsubr
            111 3 26 46 return
          </CharString>
          <CharString index="145">
            172 callsubr
            -123 -71 138 callgsubr
            return
          </CharString>
          <CharString index="146">
            rmoveto
            -198 hlineto
            227 -304 189 callgsubr
            return
          </CharString>
          <CharString index="147">
            hvcurveto
            -19 -108 rlineto
            -17 48 60 -10 return
          </CharString>
          <CharString index="148">
            rmoveto
            61 222 callsubr
            -61 -62 -50 -52 -63 -63 50 -52 62 hvcurveto
            612 hmoveto
            61 222 callsubr
            -61 -62 -50 -52 -63 -63 50 -52 62 hvcurveto
            -429 -15 rmoveto
            135 hlineto
            143 342 rlineto
            -182 hlineto
            endchar
          </CharString>
          <CharString index="149">
            152 callgsubr
            189 hlineto
            216 199 rlineto
            13 hlineto
            145 52 callgsubr
            endchar
          </CharString>
          <CharString index="150">
            339 70 callsubr
            return
          </CharString>
          <CharString index="151">
            -73 -6 -34 -41 -53 -102 -5 130 -167 hhcurveto
            -124 -86 -93 -140 -6 hvcurveto
            124 hlineto
            76 5 32 41 55 return
          </CharString>
          <CharString index="152">
            hlineto
            212 227 rlineto
            15 hlineto
            return
          </CharString>
          <CharString index="153">
            rmoveto
            67 59 58 70 70 -59 59 -67 135 callgsubr
          </CharString>
          <CharString index="154">
            199 callsubr
            -176 159 callgsubr
          </CharString>
          <CharString index="155">
            -98 callgsubr
            172 hlineto
            return
          </CharString>
          <CharString index="156">
            85 112 87 callsubr
            -168 return
          </CharString>
          <CharString index="157">
            rmoveto
            102 27 -159 155 hhcurveto
            128 86 109 159 6 hvcurveto
            -123 hlineto
            -94 -7 -35 -52 -58 -90 -32 160 -162 73 callgsubr
            6 34 50 59 hhcurveto
            endchar
          </CharString>
          <CharString index="158">
            101 -18 callsubr
            return
          </CharString>
          <CharString index="159">
            876 219 callsubr
            163 callgsubr
            -118 97 callsubr
            80 134 callsubr
            205 hhcurveto
            endchar
          </CharString>
          <CharString index="160">
            -102 callgsubr
            165 return
          </CharString>
          <CharString index="161">
            rmoveto
            322 666 rlineto
            5 hlineto
            83 -666 rlineto
            247 -565 rmoveto
            -207 233 callsubr
            -720 -83 callsubr
            184 hlineto
            200 414 rlineto
            503 hlineto
            52 -414 rlineto
            endchar
          </CharString>
          <CharString index="162">
            64 callsubr
            endchar
          </CharString>
          <CharString index="163">
            rmoveto
            -188 hlineto
            191 -339 rlineto
            165 hlineto
            return
          </CharString>
          <CharString index="164">
            hlineto
            212 226 rlineto
            15 hlineto
            return
          </CharString>
          <CharString index="165">
            1443 rmoveto
            return
          </CharString>
          <CharString index="166">
            -1612 rmoveto
            72 callgsubr
          </CharString>
          <CharString index="167">
            1028 hmoveto
            143 hlineto
            24 137 rlineto
            94 hlineto
            19 109 rlineto
            -94 hlineto
            78 441 rlineto
            -213 hlineto
            -166 -195 -100 -131 -70 -102 -22 -131 rcurveline
            330 hlineto
            -173 118 rmoveto
            return
          </CharString>
          <CharString index="168">
            352 hmoveto
            229 callsubr
            168 140 callgsubr
            9 callgsubr
            endchar
          </CharString>
          <CharString index="169">
            rmoveto
            108 84 85 107 108 -84 84 -108 -109 -85 -84 -108 -107 85 -85 109 hvcurveto
            -1 91 rmoveto
            -58 -44 42 59 59 44 42 58 59 44 -42 -59 -59 -44 -42 -59 hvcurveto
            endchar
          </CharString>
          <CharString index="170">
            92 callsubr
            85 callsubr
            198 hhcurveto
            endchar
          </CharString>
          <CharString index="171">
            46 callgsubr
            -60 113 callsubr
            60 hvcurveto
            return
          </CharString>
          <CharString index="172">
            1296 -33 callgsubr
            return
          </CharString>
          <CharString index="173">
            -98 callgsubr
            158 hlineto
            return
          </CharString>
          <CharString index="174">
            hlineto
            -341 78 callgsubr
            return
          </CharString>
          <CharString index="175">
            -65 108 callgsubr
            return
          </CharString>
          <CharString index="176">
            -11 -54 -4 -63 return
          </CharString>
          <CharString index="177">
            rlineto
            -202 hlineto
            return
          </CharString>
          <CharString index="178">
            34 callgsubr
            19 callgsubr
            return
          </CharString>
          <CharString index="179">
            208 callsubr
            117 657 rlineto
            46 hlineto
            506 -657 rlineto
            213 hlineto
            -567 730 return
          </CharString>
          <CharString index="180">
            -60 49 callsubr
            return
          </CharString>
          <CharString index="181">
            rmoveto
            663 hlineto
            20 119 215 callgsubr
            return
          </CharString>
          <CharString index="182">
            128 callsubr
            -58 68 return
          </CharString>
          <CharString index="183">
            800 762 rmoveto
            100 81 84 101 101 -81 84 -100 -99 -81 -84 -101 -101 81 -84 99 hvcurveto
            -246 -1094 rmoveto
            305 711 rlineto
            -238 hlineto
            -254 -711 rlineto
            endchar
          </CharString>
          <CharString index="184">
            hlineto
            234 346 rlineto
            return
          </CharString>
          <CharString index="185">
            1299 -54 callsubr
            -404 169 callgsubr
            return
          </CharString>
          <CharString index="186">
            rmoveto
            -10 callsubr
            403 hmoveto
            63 return
          </CharString>
          <CharString index="187">
            rmoveto
            179 callgsubr
            404 169 callsubr
            endchar
          </CharString>
          <CharString index="188">
            88 97 135 5 hvcurveto
            -122 hlineto
            -74 -6 -34 -41 -53 -103 -5 130 -166 hhcurveto
            -124 -87 -93 -139 -5 hvcurveto
            123 hlineto
            76 5 33 40 55 hhcurveto
            endchar
          </CharString>
          <CharString index="189">
            54 hlineto
            92 46 -24 -50 -47 -41 -25 -73 -39 -69 10 12 -31 94 callgsubr
            60 -10 51 hhcurveto
            148 102 -18 callsubr
            return
          </CharString>
          <CharString index="190">
            195 callgsubr
            226 -304 183 callsubr
            return
          </CharString>
          <CharString index="191">
            rmoveto
            -67 callsubr
            return
          </CharString>
          <CharString index="192">
            -32 124 -143 return
          </CharString>
          <CharString index="193">
            62 -7 callgsubr
            65 -55 56 -62 return
          </CharString>
          <CharString index="194">
            16 160 callgsubr
            return
          </CharString>
          <CharString index="195">
            rlineto
            -163 hlineto
            return
          </CharString>
          <CharString index="196">
            1811 rmoveto
            -64 -51 -52 -66 -66 51 -53 64 64 52 53 66 66 -52 52 -64 hvcurveto
            -291 120 rmoveto
            663 hlineto
            21 196 callsubr
            return
          </CharString>
          <CharString index="197">
            -35 callgsubr
            69 -58 59 -68 -68 -58 -59 -69 248 callgsubr
          </CharString>
          <CharString index="198">
            -51 callgsubr
            endchar
          </CharString>
          <CharString index="199">
            rmoveto
            251 callsubr
            77 callgsubr
            -143 hlineto
            -25 callgsubr
            return
          </CharString>
          <CharString index="200">
            -44 callgsubr
            660 hlineto
            return
          </CharString>
          <CharString index="201">
            47 49 61 62 -47 return
          </CharString>
          <CharString index="202">
            349 1085 rmoveto
            -25 -147 rlineto
            390 hlineto
            -166 -938 -27 callsubr
            166 938 rlineto
            390 hlineto
            25 147 rlineto
            endchar
          </CharString>
          <CharString index="203">
            100 callsubr
            endchar
          </CharString>
          <CharString index="204">
            99 callsubr
            -78 return
          </CharString>
          <CharString index="205">
            199 156 123 186 return
          </CharString>
          <CharString index="206">
            -18 -96 139 callgsubr
            return
          </CharString>
          <CharString index="207">
            3 26 46 60 hhcurveto
            return
          </CharString>
          <CharString index="208">
            -46 57 hvcurveto
            389 hmoveto
            57 46 46 59 59 -46 47 -57 -57 -46 -47 -59 -59 46 -46 57 hvcurveto
            -382 -200 rmoveto
            102 5 -131 return
          </CharString>
          <CharString index="209">
            960 1811 rmoveto
            13 -2 callgsubr
            -233 309 rlineto
            -159 67 callsubr
            return
          </CharString>
          <CharString index="210">
            906 hmoveto
            170 140 callgsubr
            -886 -51 callgsubr
            170 hlineto
            166 938 rlineto
            546 hlineto
            endchar
          </CharString>
          <CharString index="211">
            -36 callsubr
            endchar
          </CharString>
          <CharString index="212">
            rmoveto
            -167 231 rlineto
            -185 hlineto
            188 -231 rlineto
            -311 -237 74 callsubr
            endchar
          </CharString>
          <CharString index="213">
            207 callsubr
            132 250 callsubr
            return
          </CharString>
          <CharString index="214">
            -79 -84 -115 hhcurveto
            return
          </CharString>
          <CharString index="215">
            117 callsubr
            -63 -359 70 callsubr
            -22 -130 224 callsubr
            return
          </CharString>
          <CharString index="216">
            208 callgsubr
            -215 hlineto
            -311 -304 rlineto
            return
          </CharString>
          <CharString index="217">
            99 callgsubr
            75 432 rlineto
            return
          </CharString>
          <CharString index="218">
            rmoveto
            122 callgsubr
            164 hlineto
            return
          </CharString>
          <CharString index="219">
            -55 56 -62 -63 -54 -56 return
          </CharString>
          <CharString index="220">
            -47 -49 254 callgsubr
            return
          </CharString>
          <CharString index="221">
            -119 99 callsubr
            -79 81 112 callgsubr
            -151 204 hhcurveto
            return
          </CharString>
          <CharString index="222">
            -25 -25 vvcurveto
            -157 96 -95 155 vhcurveto
            -116 267 rmoveto
            24 2 24 5 22 vhcurveto
            11 63 rlineto
            125 24 56 65 return
          </CharString>
          <CharString index="223">
            -112 -21 -100 -78 -119 hhcurveto
            -122 -72 75 115 15 hvcurveto
            -132 hlineto
            -174 -30 133 -135 200 hhcurveto
            return
          </CharString>
          <CharString index="224">
            1291 1085 rmoveto
            -971 107 callgsubr
            200 hlineto
            return
          </CharString>
          <CharString index="225">
            -25 -145 rlineto
            return
          </CharString>
          <CharString index="226">
            94 callgsubr
            61 -10 50 hhcurveto
            148 102 -18 callsubr
            67 133 rlineto
            return
          </CharString>
          <CharString index="227">
            -61 -4 -31 -35 -50 -99 -43 122 -153 hhcurveto
            -126 -96 -92 -121 -2 hvcurveto
            127 hlineto
            59 2 39 39 57 return
          </CharString>
          <CharString index="228">
            rmoveto
            285 632 rlineto
            -187 hlineto
            -259 -632 rlineto
            endchar
          </CharString>
          <CharString index="229">
            hlineto
            -27 -162 rlineto
            247 hlineto
            return
          </CharString>
          <CharString index="230">
            rlineto
            345 hlineto
            22 130 rlineto
            -344 hlineto
            63 357 rlineto
            445 hlineto
            -37 -214 rlineto
            154 hlineto
            endchar
          </CharString>
          <CharString index="231">
            103 5 -131 166 hhcurveto
            122 89 96 135 5 hvcurveto
            return
          </CharString>
          <CharString index="232">
            -22 -123 rlineto
            -139 -24 -90 -98 -103 hhcurveto
            return
          </CharString>
          <CharString index="233">
            -81 -58 63 88 106 79 79 115 9 hvcurveto
            return
          </CharString>
          <CharString index="234">
            hmoveto
            -63 callgsubr
            return
          </CharString>
          <CharString index="235">
            240 callsubr
            -70 58 return
          </CharString>
          <CharString index="236">
            -41 80 callgsubr
            return
          </CharString>
          <CharString index="237">
            rmoveto
            151 hlineto
            120 685 rlineto
            -154 hlineto
            -195 -126 -25 -144 196 127 rlineto
            3 hlineto
            return
          </CharString>
          <CharString index="238">
            -96 -15 -85 -61 -118 hhcurveto
            -123 -74 57 100 -6 hvcurveto
            -130 hlineto
            -166 1 124 -103 198 hhcurveto
            return
          </CharString>
          <CharString index="239">
            hvcurveto
            140 hlineto
            return
          </CharString>
          <CharString index="240">
            -125 -187 -28 hvcurveto
            143 hlineto
            114 18 79 84 115 hhcurveto
            124 60 -85 -113 -16 hvcurveto
            return
          </CharString>
          <CharString index="241">
            57 callgsubr
            -150 return
          </CharString>
          <CharString index="242">
            209 48 hvcurveto
            -172 hlineto
            -131 -47 -112 -66 -176 hhcurveto
            -176 -91 66 116 1 hvcurveto
            return
          </CharString>
          <CharString index="243">
            rmoveto
            93 callsubr
            227 callgsubr
            endchar
          </CharString>
          <CharString index="244">
            -120 21 hvcurveto
            167 hlineto
            212 -12 return
          </CharString>
          <CharString index="245">
            194 148 115 163 25 hvcurveto
            return
          </CharString>
          <CharString index="246">
            hlineto
            -180 -33 143 return
          </CharString>
          <CharString index="247">
            -71 -61 -27 -54 -49 vhcurveto
            -14 hlineto
            38 125 118 90 157 23 18 103 rcurveline
            -133 -14 return
          </CharString>
          <CharString index="248">
            57 callsubr
            132 -226 119 callgsubr
            -213 341 rlineto
            endchar
          </CharString>
          <CharString index="249">
            89 109 175 5 hvcurveto
            -140 hlineto
            -108 -4 return
          </CharString>
          <CharString index="250">
            rlineto
            -252 hlineto
            -26 -162 rlineto
            return
          </CharString>
          <CharString index="251">
            -199 -156 -123 -186 return
          </CharString>
          <CharString index="252">
            rlineto
            202 hlineto
            return
          </CharString>
          <CharString index="253">
            -1092 rlineto
            171 -53 callsubr
            -138 hlineto
            -195 -1090 rlineto
            -18 hlineto
            return
          </CharString>
          <CharString index="254">
            576 20 callgsubr
            return
          </CharString>
          <CharString index="255">
            49 callsubr
            -33 125 -143 198 hhcurveto
            207 callgsubr
            return
          </CharString>
          <CharString index="256">
            hvcurveto
            178 170 callgsubr
            return
          </CharString>
          <CharString index="257">
            1651 -54 callsubr
            return
          </CharString>
          <CharString index="258">
            -40 151 -160 hhcurveto
            -138 -87 -107 -177 return
          </CharString>
          <CharString index="259">
            rmoveto
            -334 -341 rlineto
            203 hlineto
            return
          </CharString>
          <CharString index="260">
            145 callgsubr
            63 return
          </CharString>
          <CharString index="261">
            75 callsubr
            hvcurveto
            return
          </CharString>
          <CharString index="262">
            rlineto
            -156 hlineto
            return
          </CharString>
          <CharString index="263">
            107 callgsubr
            200 hlineto
            -139 -795 rlineto
            -202 107 callgsubr
            return
          </CharString>
          <CharString index="264">
            -194 28 callgsubr
            return
          </CharString>
          <CharString index="265">
            hhcurveto
            294 191 197 245 200 -135 133 -247 hvcurveto
            endchar
          </CharString>
          <CharString index="266">
            -1281 rlineto
            return
          </CharString>
          <CharString index="267">
            24 141 rlineto
            return
          </CharString>
          <CharString index="268">
            606 rmoveto
            257 hlineto
            161 76 -90 -105 -165 -121 -122 -192 return
          </CharString>
          <CharString index="269">
            52 -62 -61 -51 -52 -63 -63 51 -52 61 hvcurveto
            return
          </CharString>
          <CharString index="270">
            1097 15 callgsubr
            return
          </CharString>
          <CharString index="271">
            231 rlineto
            -203 hlineto
            -247 -231 rlineto
            return
          </CharString>
          <CharString index="272">
            115 -73 87 -124 29 return
          </CharString>
          <CharString index="273">
            -663 hlineto
            -20 -120 rlineto
            return
          </CharString>
          <CharString index="274">
            -121 hhcurveto
            -129 return
          </CharString>
          <CharString index="275">
            hmoveto
            179 callgsubr
            return
          </CharString>
          <CharString index="276">
            hmoveto
            -10 callsubr
            return
          </CharString>
          <CharString index="277">
            -60 callsubr
            59 -68 -67 -59 -59 -70 -70 59 -59 67 hvcurveto
            return
          </CharString>
          <CharString index="278">
            hlineto
            237 callgsubr
            151 return
          </CharString>
          <CharString index="279">
            -112 -20 -100 -78 -119 hhcurveto
            return
          </CharString>
          <CharString index="280">
            -55 -56 -65 -65 55 -56 return
          </CharString>
          <CharString index="281">
            rlineto
            158 hlineto
            return
          </CharString>
          <CharString index="282">
            rlineto
            164 hlineto
            return
          </CharString>
          <CharString index="283">
            1296 -34 callsubr
            return
          </CharString>
          <CharString index="284">
            rmoveto
            106 callsubr
            -142 hlineto
            -119 -18 return
          </CharString>
          <CharString index="285">
            67 callgsubr
            -54 -56 -65 -66 54 -56 63 hvcurveto
            return
          </CharString>
          <CharString index="286">
            66 81 96 vvcurveto
            107 -82 72 -121 -49 -52 -11 -17 -37 vhcurveto
            endchar
          </CharString>
          <CharString index="287">
            -90 callsubr
            endchar
          </CharString>
          <CharString index="288">
            rlineto
            -173 -98 callgsubr
            return
          </CharString>
          <CharString index="289">
            340 309 rlineto
            return
          </CharString>
          <CharString index="290">
            rlineto
            177 hlineto
            return
          </CharString>
          <CharString index="291">
            rlineto
            185 hlineto
            return
          </CharString>
          <CharString index="292">
            103 42 59 73 86 vvcurveto
            78 -65 53 -97 -45 -48 -8 -12 -33 vhcurveto
            return
          </CharString>
          <CharString index="293">
            237 180 186 228 228 180 -186 -237 return
          </CharString>
          <CharString index="294">
            rlineto
            -159 hlineto
            return
          </CharString>
          <CharString index="295">
            rlineto
            -168 hlineto
            return
          </CharString>
          <CharString index="296">
            rlineto
            -153 hlineto
            return
          </CharString>
          <CharString index="297">
            87 29 callsubr
            -139 100 callgsubr
            return
          </CharString>
          <CharString index="298">
            99 50 -122 145 hhcurveto
            114 88 88 123 5 hvcurveto
            return
          </CharString>
          <CharString index="299">
            1612 -48 callsubr
            return
          </CharString>
          <CharString index="300">
            -292 225 -229 288 hvcurveto
            98 vmoveto
            -228 -180 return
          </CharString>
          <CharString index="301">
            46 callgsubr
            -59 return
          </CharString>
          <CharString index="302">
            87 488 rlineto
            562 hlineto
            return
          </CharString>
          <CharString index="303">
            120 215 callgsubr
            return
          </CharString>
          <CharString index="304">
            -235 145 callsubr
            return
          </CharString>
          <CharString index="305">
            -55 56 -62 -62 -55 -56 return
          </CharString>
          <CharString index="306">
            rmoveto
            236 callgsubr
            return
          </CharString>
          <CharString index="307">
            hlineto
            -26 -154 rlineto
            return
          </CharString>
          <CharString index="308">
            63 54 56 65 return
          </CharString>
          <CharString index="309">
            rmoveto
            140 798 rlineto
            -157 hlineto
            -139 -798 rlineto
            return
          </CharString>
          <CharString index="310">
            339 rmoveto
            -188 hlineto
            190 -339 226 callgsubr
            return
          </CharString>
          <CharString index="311">
            hvcurveto
            -26 -150 rlineto
            -6 62 112 -2 85 hhcurveto
            290 return
          </CharString>
          <CharString index="312">
            hvcurveto
            218 callsubr
          </CharString>
          <CharString index="313">
            rlineto
            156 hlineto
            return
          </CharString>
          <CharString index="314">
            208 156 return
          </CharString>
          <CharString index="315">
            rlineto
            173 hlineto
            return
          </CharString>
          <CharString index="316">
            -171 rlineto
            -235 -42 -64 -94 -117 hhcurveto
            -109 return
          </CharString>
          <CharString index="317">
            171 callsubr
            -205 hhcurveto
            endchar
          </CharString>
          <CharString index="318">
            76 61 63 79 79 -61 63 -76 return
          </CharString>
          <CharString index="319">
            200 callgsubr
            endchar
          </CharString>
          <CharString index="320">
            rmoveto
            17 33 39 9 return
          </CharString>
          <CharString index="321">
            rlineto
            -148 hlineto
            return
          </CharString>
          <CharString index="322">
            1613 rmoveto
            193 hlineto
            332 304 rlineto
            return
          </CharString>
          <CharString index="323">
            125 101 103 127 128 -101 103 -125 return
          </CharString>
          <CharString index="324">
            -124 -101 -103 -128 -127 101 -103 124 return
          </CharString>
          <CharString index="325">
            -63 callgsubr
            endchar
          </CharString>
          <CharString index="326">
            1249 rmoveto
            208 return
          </CharString>
          <CharString index="327">
            hlineto
            -167 -940 rlineto
            return
          </CharString>
          <CharString index="328">
            -54 -55 -64 -64 54 -55 return
          </CharString>
          <CharString index="329">
            51 52 63 63 -51 52 return
          </CharString>
          <CharString index="330">
            59 59 70 70 -59 58 return
          </CharString>
          <CharString index="331">
            rlineto
            201 hlineto
            return
          </CharString>
          <CharString index="332">
            rlineto
            194 hlineto
            return
          </CharString>
          <CharString index="333">
            -65 55 -56 63 return
          </CharString>
          <CharString index="334">
            -114 -18 -79 return
          </CharString>
          <CharString index="335">
            rlineto
            -147 hlineto
            -20 -112 rlineto
            147 hlineto
            return
          </CharString>
          <CharString index="336">
            195 callsubr
            -87 -488 rlineto
            return
          </CharString>
          <CharString index="337">
            83 -99 -99 -82 -83 -101 -102 82 -83 99 hvcurveto
            return
          </CharString>
          <CharString index="338">
            hhcurveto
            -37 -50 5 3 -29 hvcurveto
            -24 -146 rlineto
            return
          </CharString>
          <CharString index="339">
            -68 -58 -58 -70 248 callgsubr
          </CharString>
          <CharString index="340">
            -59 callgsubr
            -188 hlineto
            return
          </CharString>
          <CharString index="341">
            -109 -118 vvcurveto
            -203 return
          </CharString>
          <CharString index="342">
            135 -201 hhcurveto
            return
          </CharString>
          <CharString index="343">
            hvcurveto
            124 hlineto
            97 return
          </CharString>
          <CharString index="344">
            hlineto
            19 112 rlineto
            return
          </CharString>
          <CharString index="345">
            hlineto
            -51 -286 rlineto
            return
          </CharString>
          <CharString index="346">
            rlineto
            -172 hlineto
            return
          </CharString>
          <CharString index="347">
            -68 -58 -59 -70 return
          </CharString>
          <CharString index="348">
            98 callsubr
            32 hvcurveto
            return
          </CharString>
          <CharString index="349">
            200 156 123 186 32 hvcurveto
            return
          </CharString>
          <CharString index="350">
            48 10 59 hvcurveto
            253 callsubr
            268 return
          </CharString>
          <CharString index="351">
            rlineto
            -177 -98 callgsubr
            return
          </CharString>
          <CharString index="352">
            rmoveto
            67 callgsubr
            return
          </CharString>
          <CharString index="353">
            -197 -35 -111 -109 -164 hhcurveto
            return
          </CharString>
          <CharString index="354">
            hlineto
            -44 callgsubr
            endchar
          </CharString>
          <CharString index="355">
            155 callsubr
            endchar
          </CharString>
          <CharString index="356">
            rmoveto
            -160 hlineto
            return
          </CharString>
          <CharString index="357">
            199 29 hvcurveto
            return
          </CharString>
          <CharString index="358">
            202 140 return
          </CharString>
          <CharString index="359">
            rlineto
            -178 hlineto
            return
          </CharString>
          <CharString index="360">
            40 225 rlineto
            return
          </CharString>
          <CharString index="361">
            rlineto
            152 hlineto
            return
          </CharString>
        <CharString name=".notdef">
          endchar
        </CharString>
        <CharString name="A">
          531 565 -71 callgsubr
        </CharString>
        <CharString name="AE">
          747 589 -31 callsubr
        </CharString>
        <CharString name="AEacute">
          1497 109 callsubr
          194 hlineto
          -296 -336 rmoveto
          -122 -687 rlineto
          -288 hlineto
          318 687 rlineto
          -773 -1276 rmoveto
          182 hlineto
          201 435 rlineto
          332 hlineto
          -77 -435 rlineto
          591 -41 callgsubr
          -429 hlineto
          87 487 rlineto
          394 hlineto
          26 157 rlineto
          -393 hlineto
          86 476 rlineto
          430 hlineto
          26 161 rlineto
          -797 hlineto
          endchar
        </CharString>
        <CharString name="AEmacron">
          1485 1834 74 callgsubr
          -714 -1106 -31 callsubr
        </CharString>
        <CharString name="Aacute">
          1297 208 callgsubr
          -215 hlineto
          -310 -304 rlineto
          193 hlineto
          -434 -1047 -102 callgsubr
          endchar
        </CharString>
        <CharString name="Abreve">
          531 565 -102 callgsubr
          191 475 rmoveto
          38 callsubr
          -30 133 200 callgsubr
          241 callsubr
          endchar
        </CharString>
        <CharString name="Abreveacute">
          1223 2083 rmoveto
          -183 hlineto
          -203 -221 174 callsubr
          -464 -1297 -102 callgsubr
          176 414 rmoveto
          12 callsubr
          138 callsubr
          endchar
        </CharString>
        <CharString name="Abrevedotbelow">
          576 157 callsubr
          -45 759 -102 callgsubr
          191 475 rmoveto
          38 callsubr
          -30 133 200 callgsubr
          241 callsubr
          endchar
        </CharString>
        <CharString name="Abrevegrave">
          1058 178 callgsubr
          -386 -1297 -102 callgsubr
          176 414 rmoveto
          12 callsubr
          138 callsubr
          endchar
        </CharString>
        <CharString name="Abrevehookabove">
          937 1783 rmoveto
          185 callsubr
          -18 -97 rlineto
          11 22 43 8 36 hhcurveto
          48 29 -22 -35 -45 -37 -40 -62 -22 hvcurveto
          -341 -1288 -102 callgsubr
          176 405 rmoveto
          131 callsubr
          198 142 105 164 26 hvcurveto
          endchar
        </CharString>
        <CharString name="Abrevetilde">
          1206 2078 rmoveto
          120 callsubr
          191 callsubr
          -797 -1513 -102 callgsubr
          -380 373 rmoveto
          -147 15 124 -90 185 hhcurveto
          133 callgsubr
          endchar
        </CharString>
        <CharString name="Acaron">
          997 1610 rmoveto
          182 callsubr
          -189 211 callgsubr
          -145 44 callgsubr
          233 -309 rlineto
          -306 -1045 -102 callgsubr
          endchar
        </CharString>
        <CharString name="Acircumflex">
          102 callsubr
          -213 -1047 -102 callgsubr
          endchar
        </CharString>
        <CharString name="Acircumflexacute">
          531 565 -102 callgsubr
          -120 370 rmoveto
          -324 13 callgsubr
          -241 235 rlineto
          372 270 rmoveto
          -255 -239 rlineto
          171 hlineto
          275 239 rlineto
          endchar
        </CharString>
        <CharString name="Acircumflexdotbelow">
          102 callsubr
          -168 -1806 28 callgsubr
          -45 759 -102 callgsubr
          endchar
        </CharString>
        <CharString name="Acircumflexgrave">
          1381 1844 rmoveto
          -172 239 252 callsubr
          193 -239 rlineto
          -693 -1279 -102 callgsubr
          -119 370 rmoveto
          -324 -40 callsubr
          -241 235 rlineto
          endchar
        </CharString>
        <CharString name="Acircumflexhookabove">
          531 565 -102 callgsubr
          -119 370 rmoveto
          -324 -40 callsubr
          -241 235 rlineto
          85 183 32 callsubr
          -41 -7 -11 -37 vhcurveto
          endchar
        </CharString>
        <CharString name="Acircumflextilde">
          1214 2101 rmoveto
          44 callsubr
          124 callsubr
          -806 -1536 -102 callgsubr
          -120 370 rmoveto
          -323 -40 callsubr
          -241 235 rlineto
          endchar
        </CharString>
        <CharString name="Acyrillic">
          531 565 -71 callgsubr
        </CharString>
        <CharString name="Adblgrave">
          1175 1612 rmoveto
          -199 304 rlineto
          122 callgsubr
          -215 hmoveto
          -199 304 rlineto
          122 callgsubr
          -101 -1047 -71 callgsubr
        </CharString>
        <CharString name="Adieresis">
          -5 callsubr
        </CharString>
        <CharString name="Adieresismacron">
          531 565 -102 callgsubr
          -143 233 rmoveto
          62 -47 48 -59 151 callgsubr
          vhcurveto
          282 110 rmoveto
          -59 -47 -48 254 callgsubr
          59 60 94 callsubr
          48 -60 hvcurveto
          -485 265 rmoveto
          -20 -120 rlineto
          663 hlineto
          20 120 rlineto
          endchar
        </CharString>
        <CharString name="Adotaccent">
          948 1640 -97 callsubr
          -417 -1075 -71 callgsubr
        </CharString>
        <CharString name="Adotbelow">
          576 157 callsubr
          -45 759 54 callsubr
        </CharString>
        <CharString name="Adotmacron">
          531 565 -102 callgsubr
          54 250 rmoveto
          66 -52 52 -64 -64 -51 -52 -66 -66 51 -53 64 64 52 53 66 vhcurveto
          -386 358 rmoveto
          -21 -120 rlineto
          663 hlineto
          21 120 rlineto
          endchar
        </CharString>
        <CharString name="Agrave">
          978 1612 rmoveto
          -205 304 rlineto
          -198 hlineto
          226 -304 rlineto
          -270 -1047 -71 callgsubr
        </CharString>
        <CharString name="Ahookabove">
          942 1571 rmoveto
          105 37 69 82 92 vvcurveto
          105 -81 67 -124 -46 -52 -10 -15 -34 vhcurveto
          -6 -113 rlineto
          13 26 44 9 43 hhcurveto
          62 39 -29 -44 -42 -42 -44 -64 -22 hvcurveto
          -350 -1092 -71 callgsubr
        </CharString>
        <CharString name="Ainvertedbreve">
          531 565 -102 callgsubr
          -240 166 rmoveto
          112 20 100 78 119 hhcurveto
          122 196 callgsubr
          132 hlineto
          174 30 -132 235 callsubr
          144 callsubr
          -33 hvcurveto
          endchar
        </CharString>
        <CharString name="Alphagreek">
          531 565 -71 callgsubr
        </CharString>
        <CharString name="Alphatonosgreek">
          653 58 callsubr
          -200 hlineto
          -175 -346 rlineto
          141 hlineto
          210 -532 rmoveto
          278 666 rlineto
          5 hlineto
          40 -666 rlineto
          34 -565 rmoveto
          173 hlineto
          -122 -59 callgsubr
          -189 hlineto
          -630 -1443 189 callgsubr
          173 414 rlineto
          394 hlineto
          endchar
        </CharString>
        <CharString name="Amacron">
          531 565 -102 callgsubr
          -356 391 136 callsubr
        </CharString>
        <CharString name="Aogonek">
          854 223 callgsubr
          85 -666 rlineto
          -416 hlineto
          479 -521 rmoveto
          -138 -61 -79 -94 -107 vvcurveto
          -122 93 -85 133 38 35 153 callgsubr
          -14 -19 -1 -19 hhcurveto
          -78 -52 45 67 85 83 65 154 35 hvcurveto
          -206 -59 callgsubr
          -189 hlineto
          -719 -83 callsubr
          184 hlineto
          203 414 rlineto
          499 hlineto
          endchar
        </CharString>
        <CharString name="Aring">
          919 1852 rmoveto
          59 44 -42 -59 -59 -44 -42 -59 -58 -44 42 59 59 44 42 58 hvcurveto
          -293 vmoveto
          109 84 85 107 108 -84 84 -109 -108 -85 -84 -108 -107 85 -85 108 hvcurveto
          -388 -994 -71 callgsubr
        </CharString>
        <CharString name="Aringacute">
          1215 2158 rmoveto
          -174 hlineto
          -148 -175 rlineto
          151 hlineto
          -117 -151 rmoveto
          59 44 -43 -59 -58 -44 -43 -59 -58 -44 42 59 59 44 43 58 hvcurveto
          -294 vmoveto
          109 84 85 108 107 -84 84 -109 -108 -85 -84 -107 -108 85 -85 108 hvcurveto
          -396 -973 -102 callgsubr
          endchar
        </CharString>
        <CharString name="Aringbelow">
          147 callgsubr
          352 vmoveto
          217 callsubr
          216 callsubr
          hvcurveto
          -43 697 54 callsubr
        </CharString>
        <CharString name="Atilde">
          531 565 -102 callgsubr
          179 443 rmoveto
          173 callgsubr
          -33 166 callgsubr
          -84 -105 -165 -7 127 callgsubr
          102 45 callgsubr
          5 hvcurveto
          endchar
        </CharString>
        <CharString name="B">
          -91 callsubr
          endchar
        </CharString>
        <CharString name="Bdotaccent">
          -91 callsubr
          458 197 -97 callsubr
          endchar
        </CharString>
        <CharString name="Bdotbelow">
          -91 callsubr
          83 -1897 90 callsubr
        </CharString>
        <CharString name="Becyrillic">
          690 hmoveto
          328 224 190 276 249 -160 152 -269 hvcurveto
          -305 hlineto
          76 414 rlineto
          672 hlineto
          26 162 rlineto
          -850 -98 callgsubr
          205 159 rmoveto
          99 552 rlineto
          288 hlineto
          188 102 -88 -161 -179 -148 -124 -218 hvcurveto
          endchar
        </CharString>
        <CharString name="Betagreek">
          -91 callsubr
          endchar
        </CharString>
        <CharString name="Blinebelow">
          -91 callsubr
          401 -1841 -95 callgsubr
          endchar
        </CharString>
        <CharString name="C">
          -93 callgsubr
          endchar
        </CharString>
        <CharString name="Cacute">
          -93 callgsubr
          -460 1213 rmoveto
          193 hlineto
          333 -22 callsubr
          endchar
        </CharString>
        <CharString name="Ccaron">
          -93 callgsubr
          -395 1211 239 callgsubr
          182 callsubr
          -189 -27 callgsubr
        </CharString>
        <CharString name="Ccedilla">
          1329 967 -75 callgsubr
        </CharString>
        <CharString name="Ccedillaacute">
          1303 109 callsubr
          193 hlineto
          359 -645 -75 callgsubr
        </CharString>
        <CharString name="Ccircumflex">
          -93 callgsubr
          -177 1522 rmoveto
          -160 -4 callsubr
        </CharString>
        <CharString name="Cdotaccent">
          -93 callgsubr
          -284 1241 -97 callsubr
          endchar
        </CharString>
        <CharString name="Checyrillic">
          1375 58 callsubr
          -176 hlineto
          -38 callgsubr
          -116 -656 189 callgsubr
          endchar
        </CharString>
        <CharString name="Chigreek">
          -57 callgsubr
          endchar
        </CharString>
        <CharString name="D">
          -90 callgsubr
          endchar
        </CharString>
        <CharString name="Dcaron">
          -90 callgsubr
          220 328 rmoveto
          159 hlineto
          341 309 rlineto
          -190 -27 callgsubr
        </CharString>
        <CharString name="Dcircumflexbelow">
          -90 callgsubr
          -118 -1448 rmoveto
          -333 -342 rlineto
          202 -43 callsubr
        </CharString>
        <CharString name="Dcommaaccent">
          -90 callgsubr
          -42 -1785 20 callsubr
          -120 -361 rlineto
          endchar
        </CharString>
        <CharString name="Dcroat">
          369 157 rmoveto
          91 506 rlineto
          279 hlineto
          26 152 rlineto
          -278 hlineto
          84 471 rlineto
          191 hlineto
          255 125 -129 -261 -50 -4 -52 -5 -40 hvcurveto
          -1 -9 -21 -119 -1 -6 rrcurveto
          -305 -55 -186 -158 -303 hhcurveto
          -139 1286 rmoveto
          -111 -628 214 callsubr
          -27 -152 rlineto
          149 hlineto
          -117 -663 rlineto
          390 hlineto
          406 240 203 399 70 hvcurveto
          2 10 24 132 9 vvcurveto
          6 43 4 56 56 vvcurveto
          343 -189 167 callgsubr
          endchar
        </CharString>
        <CharString name="Ddotaccent">
          -90 callgsubr
          330 358 -97 callsubr
          endchar
        </CharString>
        <CharString name="Ddotbelow">
          -90 callgsubr
          -46 -1733 -98 callsubr
          endchar
        </CharString>
        <CharString name="Decyrillic">
          1091 hmoveto
          -50 -285 rlineto
          162 hlineto
          77 447 241 callgsubr
          227 1281 rlineto
          -796 hlineto
          -208 -891 -52 -227 -61 -112 -91 -51 rlinecurve
          -89 hlineto
          -78 -447 185 callgsubr
          50 285 rlineto
          501 1281 rmoveto
          459 hlineto
          -201 -1119 rlineto
          -593 hlineto
          2 15 62 49 47 107 48 203 rlinecurve
          endchar
        </CharString>
        <CharString name="Deltagreek">
          90 hmoveto
          1080 hlineto
          20 119 -209 1324 rlineto
          -188 hlineto
          -682 -1324 rlineto
          203 43 rmoveto
          2 14 537 1058 rlineto
          5 hlineto
          155 -1058 -2 -14 rlineto
          endchar
        </CharString>
        <CharString name="Djecyrillic">
          1320 490 rmoveto
          239 -138 148 -216 -116 -92 -37 -45 -63 vhcurveto
          -7 hlineto
          87 487 rlineto
          386 hlineto
          26 161 rlineto
          -933 hlineto
          -26 -161 rlineto
          378 hlineto
          -227 -1282 rlineto
          169 hlineto
          109 620 rlineto
          51 51 101 44 109 hhcurveto
          141 85 -96 -154 -190 -117 -139 -158 -31 -36 5 6 -20 hvcurveto
          -29 -158 rlineto
          -9 21 49 -7 50 hhcurveto
          259 188 223 294 hvcurveto
          endchar
        </CharString>
        <CharString name="Dlinebelow">
          -90 callgsubr
          272 -1677 -95 callgsubr
          endchar
        </CharString>
        <CharString name="Dzecyrillic">
          -104 callgsubr
          endchar
        </CharString>
        <CharString name="Dzhecyrillic">
          500 -285 rmoveto
          166 hlineto
          50 285 rlineto
          436 -53 callsubr
          -177 hlineto
          -226 159 callsubr
          -685 hlineto
          227 209 callgsubr
          436 hlineto
          endchar
        </CharString>
        <CharString name="E">
          1109 162 -22 callgsubr
        </CharString>
        <CharString name="Eacute">
          1109 162 -104 callsubr
          -291 192 callsubr
          endchar
        </CharString>
        <CharString name="Ebreve">
          1109 162 -104 callsubr
          -138 1609 rmoveto
          242 callsubr
          -140 hlineto
          116 callsubr
          endchar
        </CharString>
        <CharString name="Ecaron">
          1109 162 -104 callsubr
          -225 1610 8 callsubr
        </CharString>
        <CharString name="Ecedilla">
          1309 1281 -4 callgsubr
        </CharString>
        <CharString name="Ecedillabreve">
          1192 1918 rmoveto
          116 callsubr
          242 callsubr
          -23 -637 -4 callgsubr
        </CharString>
        <CharString name="Ecircumflex">
          1109 162 -104 callsubr
          -8 1921 12 callgsubr
          endchar
        </CharString>
        <CharString name="Ecircumflexacute">
          1109 162 -104 callsubr
          95 1844 rmoveto
          171 hlineto
          275 239 rlineto
          -192 hlineto
          -371 -270 rmoveto
          -180 hlineto
          -323 13 callgsubr
          endchar
        </CharString>
        <CharString name="Ecircumflexbelow">
          1109 162 -104 callsubr
          -558 -166 rmoveto
          -334 -342 rlineto
          203 hlineto
          211 90 callgsubr
        </CharString>
        <CharString name="Ecircumflexdotbelow">
          1109 162 -104 callsubr
          -8 1921 12 callgsubr
          -711 -2063 46 callsubr
        </CharString>
        <CharString name="Ecircumflexgrave">
          1109 162 -104 callsubr
          319 1844 rmoveto
          -173 239 252 callsubr
          194 -239 rlineto
          -183 -31 rmoveto
          -180 hlineto
          -323 197 callsubr
          197 146 rlineto
          14 hlineto
          145 -146 119 callgsubr
          endchar
        </CharString>
        <CharString name="Ecircumflexhookabove">
          1109 162 -104 callsubr
          -21 1813 rmoveto
          -180 hlineto
          -323 197 callsubr
          197 146 rlineto
          14 hlineto
          145 -146 119 callgsubr
          -156 418 rmoveto
          10 37 28 4 29 hhcurveto
          53 33 -24 -40 -42 -39 -40 -64 -21 hvcurveto
          64 -74 rlineto
          105 34 62 74 91 vvcurveto
          89 -71 58 -105 -37 -40 -7 -11 -38 vhcurveto
          endchar
        </CharString>
        <CharString name="Ecircumflextilde">
          1109 162 -104 callsubr
          -21 1813 rmoveto
          -180 136 callgsubr
          -434 423 rmoveto
          102 5 -131 167 hhcurveto
          122 88 96 135 5 hvcurveto
          -122 hlineto
          -73 -6 -34 -41 -53 -103 -5 130 -166 hhcurveto
          -124 -87 -93 -140 -5 hvcurveto
          123 hlineto
          76 5 33 41 55 hhcurveto
          endchar
        </CharString>
        <CharString name="Ecyrillic">
          -31 callgsubr
          endchar
        </CharString>
        <CharString name="Edblgrave">
          995 1916 217 callgsubr
          -579 304 217 callgsubr
          293 -1450 -22 callgsubr
        </CharString>
        <CharString name="Edieresis">
          1109 162 -104 callsubr
          -320 1651 -37 callgsubr
        </CharString>
        <CharString name="Edotaccent">
          1109 162 -104 callsubr
          -115 1640 -97 callsubr
          endchar
        </CharString>
        <CharString name="Edotbelow">
          1109 162 -104 callsubr
          -486 -451 46 callsubr
        </CharString>
        <CharString name="Efcyrillic">
          923 1144 rmoveto
          177 -27 93 -107 -178 vvcurveto
          -29 -2 -27 -7 -47 vhcurveto
          -1 -6 -6 -48 -1 -7 -37 -244 -129 -119 -239 -9 rrcurveto
          208 1168 rmoveto
          -175 hlineto
          -28 -155 -342 -8 -192 -158 -56 -331 rlinecurve
          -2 -8 -14 -79 -7 vvcurveto
          -5 -29 -2 -34 -45 vvcurveto
          -256 150 -165 261 -34 vhcurveto
          -32 -176 189 callgsubr
          29 165 336 7 200 165 53 325 rlinecurve
          2 8 13 79 7 vvcurveto
          6 27 2 31 51 vvcurveto
          253 -153 168 -256 34 vhcurveto
          -603 -514 rmoveto
          37 248 129 119 239 5 -152 -852 rcurveline
          -174 25 -97 111 178 vvcurveto
          33 1 18 8 54 vhcurveto
          endchar
        </CharString>
        <CharString name="Egrave">
          792 208 callgsubr
          -197 hlineto
          226 -304 183 callsubr
          111 -1450 -22 callgsubr
        </CharString>
        <CharString name="Ehookabove">
          1109 162 -104 callsubr
          -289 1816 rmoveto
          13 26 44 9 43 hhcurveto
          62 38 -29 -44 -42 -41 -44 -65 -22 hvcurveto
          62 -86 rlineto
          105 37 69 82 92 vvcurveto
          105 -81 67 -124 -46 -53 -10 -15 -34 vhcurveto
          endchar
        </CharString>
        <CharString name="Einvertedbreve">
          1109 162 -104 callsubr
          -74 1918 rmoveto
          -200 134 callgsubr
          -15 hvcurveto
          132 hlineto
          174 30 -133 135 -200 hhcurveto
          endchar
        </CharString>
        <CharString name="Elcyrillic">
          1379 58 callsubr
          -828 hlineto
          59 callgsubr
          -227 159 callsubr
          175 hlineto
          endchar
        </CharString>
        <CharString name="Emacron">
          1109 162 -104 callsubr
          199 83 callgsubr
          endchar
        </CharString>
        <CharString name="Emacronacute">
          603 1614 rmoveto
          663 hlineto
          20 196 callsubr
          399 117 rmoveto
          269 164 callsubr
          268 -1689 -22 callgsubr
        </CharString>
        <CharString name="Emacrongrave">
          1109 162 -104 callsubr
          -3 1852 rmoveto
          -167 231 rlineto
          -186 hlineto
          188 -231 rlineto
          -310 -237 74 callsubr
          endchar
        </CharString>
        <CharString name="Emcyrillic">
          -76 callsubr
          endchar
        </CharString>
        <CharString name="Encyrillic">
          -79 callsubr
          endchar
        </CharString>
        <CharString name="Eogonek">
          856 -12 rmoveto
          -113 -54 -49 -75 -95 vvcurveto
          -108 95 -81 129 38 35 153 callgsubr
          -14 -20 -1 -19 hhcurveto
          -81 -48 39 66 85 84 72 154 40 hvcurveto
          26 157 rlineto
          -683 hlineto
          90 496 rlineto
          638 hlineto
          26 155 rlineto
          -638 hlineto
          85 468 rlineto
          674 -41 callgsubr
          -852 -98 callgsubr
          627 hlineto
          endchar
        </CharString>
        <CharString name="Epsilongreek">
          1109 162 -22 callgsubr
        </CharString>
        <CharString name="Epsilontonosgreek">
          1158 162 rmoveto
          -489 hlineto
          90 496 rlineto
          452 hlineto
          26 155 rlineto
          -452 hlineto
          85 468 rlineto
          488 -41 callgsubr
          -663 -98 callgsubr
          663 hlineto
          -908 1097 5 callsubr
          endchar
        </CharString>
        <CharString name="Ercyrillic">
          -72 callsubr
          endchar
        </CharString>
        <CharString name="Ereversedcyrillic">
          -100 callsubr
          endchar
        </CharString>
        <CharString name="Escyrillic">
          -93 callgsubr
          endchar
        </CharString>
        <CharString name="Etagreek">
          -79 callsubr
          endchar
        </CharString>
        <CharString name="Etatonosgreek">
          1186 127 callsubr
          -168 hlineto
          -111 -630 rlineto
          -427 hlineto
          111 630 rlineto
          -168 -98 callgsubr
          168 hlineto
          117 660 rlineto
          427 hlineto
          -117 -660 rlineto
          -812 121 callgsubr
        </CharString>
        <CharString name="Eth">
          364 162 rmoveto
          89 496 rlineto
          262 hlineto
          26 157 rlineto
          -260 hlineto
          83 467 rlineto
          193 hlineto
          252 126 -132 -263 -47 -4 -49 -5 -39 hvcurveto
          -6 -22 -117 -5 vvcurveto
          -306 -54 -181 -156 -307 hhcurveto
          -148 1281 rmoveto
          -111 -628 rlineto
          -135 hlineto
          -26 -157 rlineto
          134 hlineto
          -116 -658 rlineto
          410 hlineto
          406 235 202 406 70 hvcurveto
          1 8 24 130 8 vvcurveto
          6 41 3 55 53 vvcurveto
          348 -187 167 callgsubr
          endchar
        </CharString>
        <CharString name="Etilde">
          1109 162 -104 callsubr
          -283 1777 50 callsubr
        </CharString>
        <CharString name="Etildebelow">
          1109 162 -104 callsubr
          -630 -308 -7 callsubr
        </CharString>
        <CharString name="Euro">
          251 945 rmoveto
          -21 -120 225 callsubr
          -15 -59 -8 -58 -2 -66 rrcurveto
          -201 hlineto
          -21 -120 rlineto
          225 hlineto
          -335 34 271 -211 403 hhcurveto
          68 hlineto
          27 165 rlineto
          -2 -40 -1 -8 hhcurveto
          -326 -195 134 248 -43 hvcurveto
          540 hlineto
          21 120 rlineto
          -570 hlineto
          72 6 51 18 60 vhcurveto
          579 hlineto
          20 120 rlineto
          -555 hlineto
          233 90 196 126 278 hhcurveto
          71 77 -8 -11 45 hvcurveto
          27 162 rlineto
          13 -45 -96 10 -77 hhcurveto
          -379 -261 -182 -343 -114 hvcurveto
          endchar
        </CharString>
        <CharString name="F">
          17 callgsubr
          endchar
        </CharString>
        <CharString name="Fdotaccent">
          17 callgsubr
          740 1640 -97 callsubr
          endchar
        </CharString>
        <CharString name="G">
          -101 callgsubr
          endchar
        </CharString>
        <CharString name="Gacute">
          -101 callgsubr
          -488 1217 -48 callsubr
          endchar
        </CharString>
        <CharString name="Gammagreek">
          263 hmoveto
          177 hlineto
          228 1281 rlineto
          674 -41 callgsubr
          -852 hlineto
          endchar
        </CharString>
        <CharString name="Gbreve">
          -101 callgsubr
          -335 1214 37 callgsubr
          -132 hlineto
          -174 -30 165 callgsubr
        </CharString>
        <CharString name="Gcaron">
          -101 callgsubr
          -422 1215 rmoveto
          159 hlineto
          341 309 rlineto
          -190 -27 callgsubr
        </CharString>
        <CharString name="Gcircumflex">
          -101 callgsubr
          -205 1526 42 callsubr
        </CharString>
        <CharString name="Gcommaaccent">
          -101 callgsubr
          -613 -898 47 callsubr
        </CharString>
        <CharString name="Gdotaccent">
          -101 callgsubr
          -312 1245 -97 callsubr
          endchar
        </CharString>
        <CharString name="Gecyrillic">
          1464 58 callsubr
          -1145 1 callgsubr
          endchar
        </CharString>
        <CharString name="Geupturncyrillic">
          1513 1719 rmoveto
          -162 hlineto
          -48 -276 rlineto
          -984 1 callgsubr
          48 280 rlineto
          1 hlineto
          endchar
        </CharString>
        <CharString name="Gjecyrillic">
          1371 109 callsubr
          194 hlineto
          425 -169 rmoveto
          -1145 1 callgsubr
          endchar
        </CharString>
        <CharString name="Gmacron">
          -101 callgsubr
          2 1300 -95 callgsubr
          endchar
        </CharString>
        <CharString name="H">
          -79 callsubr
          endchar
        </CharString>
        <CharString name="Hardsigncyrillic">
          657 910 rmoveto
          94 533 rlineto
          -473 hlineto
          -26 -162 rlineto
          297 hlineto
          -228 159 callsubr
          432 hlineto
          335 192 192 330 235 -145 153 -223 hvcurveto
          -284 -160 rmoveto
          241 hlineto
          148 87 -90 -153 -218 -125 -127 -220 hvcurveto
          -236 hlineto
          endchar
        </CharString>
        <CharString name="Hbar">
          478 816 rmoveto
          48 270 rlineto
          596 hlineto
          -49 -270 rlineto
          -620 -160 rmoveto
          591 hlineto
          -116 -656 183 callsubr
          192 1084 rlineto
          119 hlineto
          24 138 rlineto
          -120 hlineto
          39 221 -5 callgsubr
          -39 -221 rlineto
          -591 hlineto
          39 221 -5 callgsubr
          -39 -221 rlineto
          -119 hlineto
          -23 -138 rlineto
          119 hlineto
          -192 -1084 183 callsubr
          endchar
        </CharString>
        <CharString name="Hbrevebelow">
          -79 callsubr
          -353 -475 36 callgsubr
          -119 -18 -96 -80 167 callsubr
          -79 80 112 callgsubr
          -150 204 hhcurveto
          endchar
        </CharString>
        <CharString name="Hcaron">
          -79 callsubr
          -104 1610 8 callsubr
        </CharString>
        <CharString name="Hcedilla">
          328 hmoveto
          117 656 rlineto
          609 hlineto
          -116 -656 rlineto
          175 -53 callsubr
          -175 hlineto
          -111 -625 rlineto
          -609 hlineto
          110 -6 callsubr
          29 hlineto
          -32 -132 -16 -93 rlineto
          37 hlineto
          93 45 -25 -50 -47 -42 -25 -73 -37 -69 10 12 -33 94 callgsubr
          61 -10 50 hhcurveto
          147 103 81 119 84 -55 55 -94 13 hvcurveto
          endchar
        </CharString>
        <CharString name="Hcircumflex">
          -79 callsubr
          113 1921 12 callgsubr
          endchar
        </CharString>
        <CharString name="Hdieresis">
          -79 callsubr
          -198 1651 -14 callgsubr
        </CharString>
        <CharString name="Hdotaccent">
          -79 callsubr
          6 1640 -97 callsubr
          endchar
        </CharString>
        <CharString name="Hdotbelow">
          -79 callsubr
          -362 20 callgsubr
          endchar
        </CharString>
        <CharString name="I">
          1013 hmoveto
          72 callgsubr
        </CharString>
        <CharString name="IAcyrillic">
          1067 562 -69 callsubr
        </CharString>
        <CharString name="IJ">
          861 -32 0 callsubr
        </CharString>
        <CharString name="IJacute">
          496 192 callsubr
          306 -304 -48 callsubr
          -563 -1948 0 callsubr
        </CharString>
        <CharString name="IUcyrillic">
          -95 callsubr
          endchar
        </CharString>
        <CharString name="Iacute">
          1013 hmoveto
          -100 callgsubr
          519 1612 rmoveto
          193 hlineto
          333 -22 callsubr
          endchar
        </CharString>
        <CharString name="Ibreve">
          1013 hmoveto
          -100 callgsubr
          672 1609 37 callgsubr
          -133 hlineto
          -174 -29 165 callgsubr
        </CharString>
        <CharString name="Icaron">
          1013 hmoveto
          -100 callgsubr
          584 1610 239 callgsubr
          182 callsubr
          -189 -27 callgsubr
        </CharString>
        <CharString name="Icircumflex">
          1013 hmoveto
          -100 callgsubr
          802 1921 rmoveto
          -160 -4 callsubr
        </CharString>
        <CharString name="Icyrillic">
          1013 hmoveto
          72 callgsubr
        </CharString>
        <CharString name="Idblgrave">
          976 27 callsubr
          217 -304 rlineto
          164 hlineto
          217 59 callsubr
        </CharString>
        <CharString name="Idieresis">
          1013 hmoveto
          -100 callgsubr
          490 1651 rmoveto
          -61 callgsubr
          -58 callgsubr
          -55 -55 113 callgsubr
          endchar
        </CharString>
        <CharString name="Idieresisacute">
          1013 hmoveto
          -100 callgsubr
          565 1859 rmoveto
          179 hlineto
          272 224 rlineto
          -204 hlineto
          -334 -517 rmoveto
          17 callsubr
          388 hmoveto
          60 94 callsubr
          49 -60 154 callgsubr
          endchar
        </CharString>
        <CharString name="Idotaccent">
          1013 hmoveto
          -100 callgsubr
          695 1640 -97 callsubr
          endchar
        </CharString>
        <CharString name="Idotbelow">
          1013 hmoveto
          -100 callgsubr
          322 20 callgsubr
          endchar
        </CharString>
        <CharString name="Iecyrillic">
          1109 162 -22 callgsubr
        </CharString>
        <CharString name="Igrave">
          773 1916 39 callsubr
          35 59 callsubr
        </CharString>
        <CharString name="Ihookabove">
          1013 hmoveto
          -100 callgsubr
          521 1816 rmoveto
          13 25 45 9 42 hhcurveto
          62 39 -29 -44 -42 -42 -44 -64 -22 hvcurveto
          61 -86 rlineto
          106 37 68 82 92 vvcurveto
          105 -81 67 -123 -47 -52 -10 -15 -34 vhcurveto
          endchar
        </CharString>
        <CharString name="Iicyrillic">
          406 1443 -60 callgsubr
        </CharString>
        <CharString name="Iinvertedbreve">
          1013 hmoveto
          -100 callgsubr
          735 1918 rmoveto
          144 callsubr
          -33 hvcurveto
          141 hlineto
          112 20 100 78 119 hhcurveto
          122 196 callgsubr
          133 hlineto
          174 29 -132 235 callsubr
          endchar
        </CharString>
        <CharString name="Iishortcyrillic">
          60 callgsubr
          -887 -481 -60 callgsubr
        </CharString>
        <CharString name="Imacron">
          1013 hmoveto
          -100 callgsubr
          1008 1695 137 callgsubr
        </CharString>
        <CharString name="Iocyrillic">
          1109 162 -104 callsubr
          -320 1651 -37 callgsubr
        </CharString>
        <CharString name="Iogonek">
          783 hmoveto
          -1 -12 rlineto
          -107 -51 -55 -75 -96 vvcurveto
          -110 95 -81 129 38 35 153 callgsubr
          -16 -17 -1 -20 hhcurveto
          -80 -49 40 65 85 84 73 151 39 hvcurveto
          26 152 -99 callsubr
          endchar
        </CharString>
        <CharString name="Iotadieresisgreek">
          1013 hmoveto
          -100 callgsubr
          490 1651 rmoveto
          -61 callgsubr
          -58 callgsubr
          -55 -55 113 callgsubr
          endchar
        </CharString>
        <CharString name="Iotagreek">
          1013 hmoveto
          72 callgsubr
        </CharString>
        <CharString name="Iotatonosgreek">
          1184 hmoveto
          26 157 rlineto
          -275 hlineto
          202 1129 rlineto
          275 hlineto
          26 157 rlineto
          -716 hlineto
          -26 -157 rlineto
          275 hlineto
          -202 -1129 rlineto
          -275 hlineto
          -26 -157 rlineto
          -202 121 callgsubr
        </CharString>
        <CharString name="Iotatonosgreek.1">
          867 127 callsubr
          -176 -98 callgsubr
          -364 1097 5 callsubr
          endchar
        </CharString>
        <CharString name="Itilde">
          1013 hmoveto
          -100 callgsubr
          527 1777 rmoveto
          101 45 callgsubr
          6 hvcurveto
          -124 hlineto
          173 callgsubr
          -33 160 -161 73 callgsubr
          5 35 50 59 hhcurveto
          endchar
        </CharString>
        <CharString name="Itildebelow">
          1013 hmoveto
          -100 callgsubr
          178 42 callgsubr
        </CharString>
        <CharString name="J">
          -30 callsubr
          endchar
        </CharString>
        <CharString name="Jcircumflex">
          -30 callsubr
          471 1951 12 callgsubr
          endchar
        </CharString>
        <CharString name="Jecyrillic">
          -30 callsubr
          endchar
        </CharString>
        <CharString name="K">
          -76 callgsubr
          endchar
        </CharString>
        <CharString name="Kacute">
          -76 callgsubr
          -434 1612 rmoveto
          193 hlineto
          333 -22 callsubr
          endchar
        </CharString>
        <CharString name="Kacyrillic">
          586 58 callsubr
          -173 hlineto
          -254 -1443 72 callsubr
          784 713 rlineto
          182 callgsubr
          endchar
        </CharString>
        <CharString name="Kappagreek">
          -76 callgsubr
          endchar
        </CharString>
        <CharString name="Kcaron">
          -76 callgsubr
          -369 1610 239 callgsubr
          341 309 rlineto
          -190 -27 callgsubr
        </CharString>
        <CharString name="Kcommaaccent">
          -76 callgsubr
          -605 -503 20 callsubr
          -121 -361 rlineto
          endchar
        </CharString>
        <CharString name="Kdotbelow">
          -76 callgsubr
          -609 -451 46 callsubr
        </CharString>
        <CharString name="Kjecyrillic">
          726 190 callgsubr
          -450 -473 rmoveto
          -173 hlineto
          -254 -1443 72 callsubr
          784 713 rlineto
          182 callgsubr
          endchar
        </CharString>
        <CharString name="Klinebelow">
          -76 callgsubr
          -292 -395 -95 callgsubr
          endchar
        </CharString>
        <CharString name="L">
          -49 callgsubr
          endchar
        </CharString>
        <CharString name="Lacute">
          -49 callgsubr
          -632 192 callsubr
          endchar
        </CharString>
        <CharString name="Lambdagreek">
          91 hmoveto
          184 hlineto
          578 1227 rlineto
          5 hlineto
          136 -1227 rlineto
          175 hlineto
          -188 233 callsubr
          endchar
        </CharString>
        <CharString name="Lcaron">
          1017 58 callsubr
          -84 -481 rlineto
          119 hlineto
          122 481 rlineto
          -24 -1279 rmoveto
          -684 hlineto
          226 1279 -39 callgsubr
          859 hlineto
          endchar
        </CharString>
        <CharString name="Lcircumflexbelow">
          -49 callgsubr
          -559 -166 rmoveto
          -333 -342 rlineto
          202 -43 callsubr
        </CharString>
        <CharString name="Lcommaaccent">
          -49 callgsubr
          -483 -503 20 callsubr
          -120 -361 rlineto
          endchar
        </CharString>
        <CharString name="Ldot">
          -49 callgsubr
          24 902 47 callgsubr
        </CharString>
        <CharString name="Ldotbelow">
          -49 callgsubr
          -487 20 callgsubr
          endchar
        </CharString>
        <CharString name="Ldotbelowmacron">
          -49 callgsubr
          -487 20 callgsubr
          345 2146 -95 callgsubr
          endchar
        </CharString>
        <CharString name="Ljecyrillic">
          885 750 rmoveto
          107 hlineto
          112 64 -83 -146 -216 -117 -149 -167 hvcurveto
          -105 hlineto
          -213 1139 rmoveto
          262 hlineto
          -230 -1294 rlineto
          279 hlineto
          277 174 207 340 219 -115 137 -189 hvcurveto
          -109 hlineto
          97 539 rlineto
          -577 hlineto
          -106 -561 rlineto
          -568 -115 -41 -151 -99 hhcurveto
          -12 -20 5 4 -9 hvcurveto
          -31 -170 rlineto
          -6 18 31 -5 33 hhcurveto
          202 58 181 699 141 hvcurveto
          endchar
        </CharString>
        <CharString name="Llinebelow">
          -49 callgsubr
          -169 -395 -95 callgsubr
          endchar
        </CharString>
        <CharString name="Lslash">
          466 164 rmoveto
          90 508 541 279 28 169 -540 -282 107 605 rlineto
          -175 hlineto
          -124 -706 -203 -106 -27 -161 201 103 -101 -573 rlineto
          859 hlineto
          28 164 rlineto
          endchar
        </CharString>
        <CharString name="M">
          -76 callsubr
          endchar
        </CharString>
        <CharString name="Macute">
          -76 callsubr
          515 192 callsubr
          endchar
        </CharString>
        <CharString name="Mdotaccent">
          -76 callsubr
          691 1640 -97 callsubr
          endchar
        </CharString>
        <CharString name="Mdotbelow">
          -76 callsubr
          319 20 callgsubr
          endchar
        </CharString>
        <CharString name="Mugreek">
          -76 callsubr
          endchar
        </CharString>
        <CharString name="N">
          312 hmoveto
          -83 callgsubr
          endchar
        </CharString>
        <CharString name="Nacute">
          312 hmoveto
          -83 callgsubr
          616 192 callsubr
          endchar
        </CharString>
        <CharString name="Ncaron">
          312 hmoveto
          -83 callgsubr
          681 1610 239 callgsubr
          341 309 rlineto
          -190 -27 callgsubr
        </CharString>
        <CharString name="Ncircumflexbelow">
          312 hmoveto
          -83 callgsubr
          348 -166 rmoveto
          -334 -342 rlineto
          203 -43 callsubr
        </CharString>
        <CharString name="Ncommaaccent">
          312 hmoveto
          -83 callgsubr
          424 -503 20 callsubr
          -121 -361 rlineto
          endchar
        </CharString>
        <CharString name="Ndotaccent">
          312 hmoveto
          -83 callgsubr
          792 1640 -97 callsubr
          endchar
        </CharString>
        <CharString name="Ndotbelow">
          312 hmoveto
          -83 callgsubr
          420 20 callgsubr
          endchar
        </CharString>
        <CharString name="Ngrave">
          770 1916 39 callsubr
          -663 -1612 rmoveto
          -83 callgsubr
          endchar
        </CharString>
        <CharString name="Njecyrillic">
          256 hmoveto
          118 662 rlineto
          341 hlineto
          -117 -662 rlineto
          256 hlineto
          289 158 172 319 213 -112 113 -198 hvcurveto
          -93 hlineto
          111 626 rlineto
          -157 hlineto
          -111 -626 rlineto
          -342 hlineto
          111 626 rlineto
          -155 -98 callgsubr
          769 665 rmoveto
          100 hlineto
          112 62 -70 -124 -203 -99 -121 -174 hvcurveto
          -94 hlineto
          endchar
        </CharString>
        <CharString name="Nlinebelow">
          312 hmoveto
          -83 callgsubr
          738 -395 -95 callgsubr
          endchar
        </CharString>
        <CharString name="Ntilde">
          312 hmoveto
          -83 callgsubr
          624 1777 rmoveto
          101 28 -159 155 4 callsubr
        </CharString>
        <CharString name="Nugreek">
          312 hmoveto
          -83 callgsubr
          endchar
        </CharString>
        <CharString name="NumberSignCyrillic">
          243 callgsubr
          120 146 callsubr
          -118 1090 181 callsubr
          1275 843 rmoveto
          22 124 rlineto
          -336 hlineto
          -22 -124 rlineto
          239 269 rmoveto
          95 76 77 95 95 -76 77 -95 -95 -76 -77 -95 -95 76 -77 95 hvcurveto
          endchar
        </CharString>
        <CharString name="O">
          -106 callsubr
          endchar
        </CharString>
        <CharString name="OE">
          360 896 rmoveto
          262 47 92 128 139 hhcurveto
          131 66 -100 -198 -85 -5 -58 -14 -70 hvcurveto
          -43 -238 rlineto
          -253 -46 -96 -126 -146 hhcurveto
          -113 -72 104 166 76 8 88 13 84 hvcurveto
          395 -502 rmoveto
          8 hlineto
          -30 -174 rlineto
          564 hlineto
          27 161 rlineto
          -420 hlineto
          90 496 rlineto
          386 hlineto
          26 159 rlineto
          -385 hlineto
          84 465 rlineto
          420 hlineto
          26 162 rlineto
          -564 hlineto
          -42 -238 rlineto
          -8 hlineto
          172 -16 -98 100 -158 hhcurveto
          -225 -147 -182 -357 -60 hvcurveto
          -43 -251 rlineto
          -19 -116 -6 -78 -105 vvcurveto
          -263 115 -158 190 134 89 64 143 62 vhcurveto
          endchar
        </CharString>
        <CharString name="Oacute">
          -106 callsubr
          67 1475 70 callgsubr
        </CharString>
        <CharString name="Obreve">
          -106 callsubr
          220 1472 rmoveto
          241 callsubr
          -140 hlineto
          38 callsubr
          -30 133 212 callsubr
        </CharString>
        <CharString name="Ocaron">
          -106 callsubr
          132 1473 43 callgsubr
        </CharString>
        <CharString name="Ocircumflex">
          -106 callsubr
          349 1784 rmoveto
          -159 -4 callsubr
        </CharString>
        <CharString name="Ocircumflexacute">
          -106 callsubr
          452 1707 rmoveto
          171 hlineto
          275 239 rlineto
          -191 96 callgsubr
        </CharString>
        <CharString name="Ocircumflexdotbelow">
          -106 callsubr
          349 1784 rmoveto
          -159 2 callgsubr
          -711 -2063 -98 callsubr
          endchar
        </CharString>
        <CharString name="Ocircumflexgrave">
          -106 callsubr
          676 1707 62 callgsubr
        </CharString>
        <CharString name="Ocircumflexhookabove">
          -106 callsubr
          336 1676 123 callgsubr
          -156 418 32 callsubr
          -41 -7 -11 -37 vhcurveto
          endchar
        </CharString>
        <CharString name="Ocircumflextilde">
          -106 callsubr
          336 1676 rmoveto
          -180 hlineto
          -323 -40 callsubr
          -435 423 rmoveto
          124 callsubr
          -123 hlineto
          44 callsubr
          hhcurveto
          endchar
        </CharString>
        <CharString name="Ocyrillic">
          -106 callsubr
          endchar
        </CharString>
        <CharString name="Odblgrave">
          976 27 callsubr
          217 -304 rlineto
          164 hlineto
          -358 -715 -84 callsubr
        </CharString>
        <CharString name="Odieresis">
          -106 callsubr
          38 1514 -70 callsubr
        </CharString>
        <CharString name="Odieresismacron">
          -106 callsubr
          415 1649 rmoveto
          -59 -47 -48 254 callgsubr
          59 60 94 callsubr
          48 -60 149 callsubr
          151 callgsubr
          62 -47 48 -59 hvcurveto
          endchar
        </CharString>
        <CharString name="Odotaccent">
          -106 callsubr
          243 1503 -97 callsubr
          endchar
        </CharString>
        <CharString name="Odotaccentmacron">
          919 89 callsubr
          -211 -1154 -84 callsubr
        </CharString>
        <CharString name="Odotbelow">
          -106 callsubr
          -129 -588 -98 callsubr
          endchar
        </CharString>
        <CharString name="Ograve">
          773 83 callsubr
          -540 -715 -84 callsubr
        </CharString>
        <CharString name="Ohookabove">
          -106 callsubr
          68 1679 -29 callgsubr
          endchar
        </CharString>
        <CharString name="Ohorn">
          689 -30 -94 callsubr
          endchar
        </CharString>
        <CharString name="Ohornacute">
          689 -30 -94 callsubr
          64 1475 70 callgsubr
        </CharString>
        <CharString name="Ohorndotbelow">
          689 -30 -94 callsubr
          -130 -588 -98 callsubr
          endchar
        </CharString>
        <CharString name="Ohorngrave">
          438 897 rmoveto
          267 49 132 142 191 hhcurveto
          195 128 -143 -220 -59 -3 -44 -8 -47 -23 callsubr
          -276 -50 -130 -146 -194 hhcurveto
          -197 -127 144 226 49 5 47 11 69 hvcurveto
          885 24 rmoveto
          17 88 10 89 71 vvcurveto
          124 -30 105 -58 87 vhcurveto
          1 1 4 1 vvcurveto
          10 hlineto
          123 -9 94 65 42 124 11 28 13 80 23 122 rrcurveto
          -148 hlineto
          -24 -136 rlineto
          -97 -18 -54 -50 -85 -133 -68 80 -187 hhcurveto
          -291 -207 -202 -346 -62 hvcurveto
          -41 -232 rlineto
          -11 -52 -5 -62 -91 vvcurveto
          -309 196 -209 288 303 197 193 361 64 vhcurveto
          -398 1392 39 callsubr
          endchar
        </CharString>
        <CharString name="Ohornhookabove">
          774 1816 -29 callgsubr
          -91 -1959 -94 callsubr
          endchar
        </CharString>
        <CharString name="Ohorntilde">
          689 -30 -94 callsubr
          74 1640 -34 callgsubr
        </CharString>
        <CharString name="Ohungarumlaut">
          -106 callsubr
          343 1475 rmoveto
          177 hlineto
          323 304 rlineto
          -194 hlineto
          -684 -304 rmoveto
          176 hlineto
          323 304 rlineto
          -194 hlineto
          endchar
        </CharString>
        <CharString name="Oinvertedbreve">
          -106 callsubr
          283 1781 3 callgsubr
        </CharString>
        <CharString name="Omacron">
          -106 callsubr
          556 1558 -95 callgsubr
          endchar
        </CharString>
        <CharString name="Omacronacute">
          583 1614 rmoveto
          663 hlineto
          21 196 callsubr
          399 117 rmoveto
          268 164 callsubr
          -383 -954 -84 callsubr
        </CharString>
        <CharString name="Omacrongrave">
          -106 callsubr
          354 1715 105 callsubr
        </CharString>
        <CharString name="Omegagreek">
          828 1474 rmoveto
          -299 -203 -195 -322 -67 hvcurveto
          -5 -14 -30 -160 -2 -15 rrcurveto
          -8 -47 -4 -53 -53 vvcurveto
          -192 66 -167 109 -85 vhcurveto
          -2 -12 rlineto
          -259 hlineto
          -26 -159 rlineto
          430 hlineto
          32 192 -114 71 -61 156 -1 181 rlinecurve
          43 2 43 7 47 vhcurveto
          2 20 28 154 5 14 rrcurveto
          244 50 136 142 199 hhcurveto
          218 113 -139 -237 -50 -1 -41 -15 -84 hvcurveto
          -3 -21 -20 -97 -8 -15 -47 -221 -125 -162 -166 -55 -30 -185 rcurveline
          453 hlineto
          27 159 rlineto
          -256 hlineto
          2 12 181 99 102 143 46 239 rlinecurve
          1 9 19 99 1 9 rrcurveto
          12 70 1 68 44 vvcurveto
          329 -170 194 -320 vhcurveto
          endchar
        </CharString>
        <CharString name="Omegatonosgreek">
          935 1473 rmoveto
          -280 -181 -194 -369 -65 hvcurveto
          -2 -12 -28 -155 -1 -10 rrcurveto
          -8 -49 -4 -51 -47 vvcurveto
          -176 65 -161 105 -86 vhcurveto
          -2 -12 rlineto
          -243 hlineto
          -26 -151 rlineto
          407 hlineto
          34 208 rlineto
          -111 69 -60 141 167 vvcurveto
          42 3 58 9 53 vhcurveto
          1 9 27 148 2 13 rrcurveto
          278 50 109 122 189 hhcurveto
          189 89 -122 -228 -50 -2 -41 -14 -76 hvcurveto
          -6 -16 -85 -1 -8 vhcurveto
          -45 -255 -113 -173 -178 -65 -33 -199 rcurveline
          434 hlineto
          26 151 rlineto
          -245 hlineto
          2 12 185 108 87 150 44 247 rlinecurve
          1 9 19 100 8 vvcurveto
          12 66 2 75 47 vvcurveto
          327 -149 173 -284 vhcurveto
          -771 -376 5 callsubr
          endchar
        </CharString>
        <CharString name="Omicrongreek">
          -106 callsubr
          endchar
        </CharString>
        <CharString name="Omicrontonosgreek">
          592 463 rmoveto
          58 4 57 11 65 vhcurveto
          49 278 rlineto
          253 46 126 132 144 hhcurveto
          160 71 -136 -178 -35 -6 -104 -16 -89 hvcurveto
          -38 -224 rlineto
          -266 -48 -118 -138 -157 hhcurveto
          -168 -60 150 177 hvcurveto
          724 71 rmoveto
          42 240 rlineto
          13 81 6 102 42 vvcurveto
          282 -129 192 -255 -259 -178 -188 -364 -63 vhcurveto
          -33 -187 rlineto
          -23 -129 -8 -85 -72 vvcurveto
          -295 136 -183 248 264 174 192 372 65 vhcurveto
          -1092 563 5 callsubr
          endchar
        </CharString>
        <CharString name="Oogonek">
          885 -423 -48 callgsubr
        </CharString>
        <CharString name="Oogonekmacron">
          1262 83 callgsubr
          283 -2118 -48 callgsubr
        </CharString>
        <CharString name="Oslash">
          1084 559 -46 callsubr
        </CharString>
        <CharString name="Oslashacute">
          1294 109 callsubr
          194 hlineto
          122 -1053 -46 callsubr
        </CharString>
        <CharString name="Otilde">
          -106 callsubr
          74 1640 -34 callgsubr
        </CharString>
        <CharString name="Otildeacute">
          -106 callsubr
          121 1757 rmoveto
          154 hlineto
          164 218 -5 callgsubr
          -209 -420 1 callsubr
          -126 -86 48 callgsubr
        </CharString>
        <CharString name="Otildedieresis">
          -106 callsubr
          79 1747 rmoveto
          58 45 46 59 59 -45 47 -58 -57 -46 -47 -59 -59 46 101 callsubr
          166 hhcurveto
          123 81 callsubr
        </CharString>
        <CharString name="Otildemacron">
          -106 callsubr
          584 1798 rmoveto
          20 120 rlineto
          166 callsubr
          170 -243 1 callsubr
          -126 -86 48 callgsubr
        </CharString>
        <CharString name="P">
          -72 callsubr
          endchar
        </CharString>
        <CharString name="Pacute">
          -72 callsubr
          228 937 -48 callsubr
          endchar
        </CharString>
        <CharString name="Pdotaccent">
          -72 callsubr
          405 965 158 callgsubr
        </CharString>
        <CharString name="Pecyrillic">
          1389 58 callsubr
          -1004 -98 callgsubr
          177 hlineto
          227 1280 rlineto
          650 hlineto
          -227 -1280 183 callsubr
          endchar
        </CharString>
        <CharString name="Phigreek">
          731 58 rmoveto
          214 2 153 89 100 136 rrcurveto
          110 146 46 199 198 vvcurveto
          303 -141 191 -253 41 vhcurveto
          26 145 214 callgsubr
          -25 -140 -214 -3 -153 -89 -100 -134 rlinecurve
          -109 -146 -47 -198 -200 vvcurveto
          -303 141 -191 253 -40 vhcurveto
          -24 -138 rlineto
          165 hlineto
          -378 669 rmoveto
          125 28 187 92 136 vhcurveto
          104 69 103 74 152 hhcurveto
          -179 -1008 rlineto
          -170 30 -95 128 224 vvcurveto
          868 236 rmoveto
          -125 -28 -187 -92 -136 vhcurveto
          -104 -69 -103 -74 -152 hhcurveto
          180 1008 rlineto
          170 -30 94 -128 -224 vvcurveto
          endchar
        </CharString>
        <CharString name="Pigreek">
          160 hmoveto
          176 hlineto
          227 1281 rlineto
          594 hlineto
          -227 -1281 rlineto
          176 -53 callsubr
          -946 hlineto
          endchar
        </CharString>
        <CharString name="Psigreek">
          547 hmoveto
          172 hlineto
          58 322 316 9 176 158 60 347 rlinecurve
          106 607 88 callsubr
          -101 -579 -48 -273 -111 -114 -214 -2 rlinecurve
          171 968 241 callgsubr
          -170 -962 rlineto
          -169 18 -77 85 160 vvcurveto
          36 6 46 13 77 vhcurveto
          94 540 88 callsubr
          -92 -526 rlineto
          -13 -75 -6 -61 -54 vvcurveto
          -238 123 -127 254 -33 vhcurveto
          endchar
        </CharString>
        <CharString name="Q">
          1085 557 rmoveto
          -25 -141 -47 -108 -67 -72 -105 225 rcurveline
          -180 hlineto
          146 -313 rlineto
          -10 -32 -34 -5 -36 hhcurveto
          -199 -124 142 230 57 4 47 11 60 hvcurveto
          40 227 rlineto
          269 48 132 141 195 hhcurveto
          198 129 -145 -219 -44 -5 -65 -7 -41 hvcurveto
          -907 -99 rmoveto
          69 callsubr
          -88 vvcurveto
          -308 197 -210 289 67 62 9 19 57 vhcurveto
          76 -163 rlineto
          180 hlineto
          -112 239 119 92 81 152 37 206 rlinecurve
          42 232 rlineto
          10 65 5 63 60 vvcurveto
          320 -195 209 -300 -290 -208 -203 -345 -60 vhcurveto
          endchar
        </CharString>
        <CharString name="R">
          -101 callsubr
          endchar
        </CharString>
        <CharString name="Racute">
          -101 callsubr
          560 192 callsubr
          endchar
        </CharString>
        <CharString name="Rcaron">
          -101 callsubr
          626 1610 8 callsubr
        </CharString>
        <CharString name="Rcommaaccent">
          -101 callsubr
          402 -503 47 callsubr
        </CharString>
        <CharString name="Rdblgrave">
          946 208 callgsubr
          -182 hlineto
          218 -304 185 callgsubr
          -578 304 217 callgsubr
          -411 -1612 rmoveto
          102 575 rlineto
          257 hlineto
          23 33 1 1 17 hvcurveto
          180 -577 175 callgsubr
          -194 602 184 46 125 136 30 187 rlinecurve
          5 33 2 32 30 vvcurveto
          234 1 -156 143 -247 hhcurveto
          -470 -98 callgsubr
          402 1286 rmoveto
          284 hlineto
          164 93 -86 -142 -1 hvcurveto
          -24 -3 -27 -3 -17 vhcurveto
          -163 -27 -129 -103 -207 hhcurveto
          -271 hlineto
          endchar
        </CharString>
        <CharString name="Rdotaccent">
          -101 callsubr
          736 1640 -97 callsubr
          endchar
        </CharString>
        <CharString name="Rdotbelow">
          -101 callsubr
          398 -451 47 callgsubr
        </CharString>
        <CharString name="Rdotbelowmacron">
          -101 callsubr
          398 -451 -13 callsubr
          69 70 -58 59 -68 240 callsubr
          -69 -17 callgsubr
          652 2146 -95 callgsubr
          endchar
        </CharString>
        <CharString name="Rhogreek">
          -72 callsubr
          endchar
        </CharString>
        <CharString name="Rinvertedbreve">
          -101 callsubr
          776 1918 rmoveto
          -199 134 callgsubr
          -16 hvcurveto
          133 hlineto
          174 30 -133 235 callsubr
          endchar
        </CharString>
        <CharString name="Rlinebelow">
          -101 callsubr
          716 -395 -95 callgsubr
          endchar
        </CharString>
        <CharString name="S">
          -104 callgsubr
          endchar
        </CharString>
        <CharString name="Sacute">
          -104 callgsubr
          379 1199 rmoveto
          193 hlineto
          333 -22 callsubr
          endchar
        </CharString>
        <CharString name="Sacutedotaccent">
          -104 callgsubr
          578 1199 rmoveto
          193 hlineto
          333 -22 callsubr
          -486 -227 -98 callsubr
          endchar
        </CharString>
        <CharString name="Scaron">
          -104 callgsubr
          444 1197 239 callgsubr
          182 callsubr
          -189 -27 callgsubr
        </CharString>
        <CharString name="Scarondotaccent">
          -104 callgsubr
          529 1455 63 callgsubr
          242 -237 rlineto
          endchar
        </CharString>
        <CharString name="Scedilla">
          1279 1056 rmoveto
          2 8 1 20 12 vvcurveto
          220 -193 157 -269 -287 -197 -168 -246 -181 101 -117 238 -90 vhcurveto
          95 -36 rlineto
          190 -71 66 -66 -114 vvcurveto
          -149 -132 -105 -190 -194 -139 107 148 7 1 8 1 13 vhcurveto
          -174 hlineto
          -3 -9 -1 -14 -24 vvcurveto
          -190 151 -149 219 -44 vhcurveto
          -65 -125 -5 -84 rlineto
          53 hlineto
          93 46 -24 -50 -47 -41 -25 -73 -39 -69 10 12 -31 228 callgsubr
          148 101 82 118 93 -65 55 -118 4 hvcurveto
          52 103 rlineto
          8 hlineto
          307 201 174 265 179 -94 106 -249 95 hvcurveto
          -106 40 rlineto
          -175 66 -65 68 113 vvcurveto
          139 124 98 177 167 119 -99 -135 -17 0 -3 -1 -3 vhcurveto
          endchar
        </CharString>
        <CharString name="Scircumflex">
          -104 callgsubr
          662 1508 rmoveto
          -160 -4 callsubr
        </CharString>
        <CharString name="Scommaaccent">
          -104 callgsubr
          203 -932 20 callsubr
          -120 -361 rlineto
          endchar
        </CharString>
        <CharString name="Sdotaccent">
          -104 callgsubr
          555 1227 -97 callsubr
          endchar
        </CharString>
        <CharString name="Sdotbelow">
          -104 callgsubr
          199 -864 -98 callsubr
          endchar
        </CharString>
        <CharString name="Sdotbelowdotaccent">
          -104 callgsubr
          199 -864 -98 callsubr
          356 2091 -97 callsubr
          endchar
        </CharString>
        <CharString name="Shacyrillic">
          1192 127 callsubr
          -156 hlineto
          -227 -1285 rlineto
          -326 181 callgsubr
          -227 -1285 rlineto
          -326 181 callgsubr
          -254 -1443 rlineto
          endchar
        </CharString>
        <CharString name="Shchacyrillic">
          1077 -285 rmoveto
          149 hlineto
          77 443 rlineto
          -147 181 callgsubr
          -228 -1288 rlineto
          -307 hlineto
          228 1288 155 callsubr
          -227 -1288 rlineto
          -308 hlineto
          228 1288 rlineto
          -156 -98 callgsubr
          1079 hlineto
          endchar
        </CharString>
        <CharString name="Sigmagreek">
          137 hmoveto
          941 -41 callgsubr
          -714 hlineto
          2 12 439 526 6 28 -249 539 3 14 rlineto
          695 hlineto
          26 162 rlineto
          -904 hlineto
          -23 -141 261 -573 -488 -598 rlineto
          endchar
        </CharString>
        <CharString name="Softsigncyrillic">
          487 749 rmoveto
          339 hlineto
          152 88 -88 -154 -223 -126 -125 -225 hvcurveto
          -334 hlineto
          330 -159 rmoveto
          340 193 190 332 234 -147 151 -228 hvcurveto
          -356 hlineto
          95 536 244 callsubr
          endchar
        </CharString>
        <CharString name="T">
          721 hmoveto
          -64 callsubr
          endchar
        </CharString>
        <CharString name="Taugreek">
          721 hmoveto
          -64 callsubr
          endchar
        </CharString>
        <CharString name="Tbar">
          1384 1281 rmoveto
          27 162 rlineto
          -1048 hlineto
          -26 -162 rlineto
          436 hlineto
          -87 -489 rlineto
          -300 hlineto
          -23 -141 rlineto
          298 hlineto
          -116 -651 189 callgsubr
          116 651 rlineto
          299 hlineto
          23 141 rlineto
          -297 hlineto
          87 489 rlineto
          endchar
        </CharString>
        <CharString name="Tcaron">
          721 hmoveto
          -64 callsubr
          292 1610 239 callgsubr
          182 callsubr
          -189 -27 callgsubr
        </CharString>
        <CharString name="Tcedilla">
          575 -2 rmoveto
          -32 -131 -16 -92 rlineto
          37 hlineto
          92 45 -25 -50 -47 -41 -25 -74 -37 -68 10 12 -33 228 callgsubr
          147 102 81 119 84 -54 55 -94 13 hvcurveto
          32 133 -64 callsubr
          endchar
        </CharString>
        <CharString name="Tcircumflexbelow">
          721 hmoveto
          -64 callsubr
          -42 -166 rmoveto
          -333 -342 rlineto
          202 -43 callsubr
        </CharString>
        <CharString name="Tcommaaccent">
          721 hmoveto
          -64 callsubr
          34 -503 20 callsubr
          -120 -361 rlineto
          endchar
        </CharString>
        <CharString name="Tdotaccent">
          721 hmoveto
          -64 callsubr
          403 1640 -97 callsubr
          endchar
        </CharString>
        <CharString name="Tdotbelow">
          721 hmoveto
          -64 callsubr
          30 20 callgsubr
          endchar
        </CharString>
        <CharString name="Tecyrillic">
          721 hmoveto
          -64 callsubr
          endchar
        </CharString>
        <CharString name="Thetagreek">
          498 643 rmoveto
          496 hlineto
          26 159 rlineto
          -495 hlineto
          733 -278 rmoveto
          43 232 rlineto
          9 67 5 59 62 64 callgsubr
          -53 -4 -63 -89 vvcurveto
          -308 197 -210 289 305 197 193 361 65 vhcurveto
          -554 -387 rmoveto
          -204 -122 143 228 57 4 243 callsubr
          47 132 141 202 hhcurveto
          203 128 -145 -218 -43 -6 -65 -7 -42 hvcurveto
          -41 -234 rlineto
          -273 -49 -134 -149 -203 hhcurveto
          endchar
        </CharString>
        <CharString name="Thorn">
          442 246 callgsubr
          181 hlineto
          61 342 rlineto
          346 hlineto
          283 179 158 274 27 hvcurveto
          247 25 -141 156 -249 hhcurveto
          -325 hlineto
          47 266 rlineto
          -74 -429 rmoveto
          293 hlineto
          181 80 -80 -165 -18 hvcurveto
          -170 -18 -113 -93 -191 hhcurveto
          -304 hlineto
          endchar
        </CharString>
        <CharString name="Tlinebelow">
          721 hmoveto
          -64 callsubr
          348 -395 -95 callgsubr
          endchar
        </CharString>
        <CharString name="Tsecyrillic">
          1292 162 rmoveto
          -158 hlineto
          227 1281 -5 callgsubr
          -227 159 callsubr
          -647 hlineto
          226 209 callgsubr
          997 88 callgsubr
          162 hlineto
          endchar
        </CharString>
        <CharString name="Tshecyrillic">
          518 hmoveto
          109 619 rlineto
          66 69 111 46 97 hhcurveto
          137 77 -83 -146 -31 -3 -33 -6 -36 hvcurveto
          -71 -402 208 callsubr
          72 409 rlineto
          9 48 4 47 42 vvcurveto
          223 -121 125 -216 -104 -118 -43 -66 -75 vhcurveto
          -7 hlineto
          90 496 rlineto
          357 hlineto
          26 162 rlineto
          -874 hlineto
          -26 -162 rlineto
          344 hlineto
          -227 159 callsubr
          endchar
        </CharString>
        <CharString name="U">
          229 563 -28 callgsubr
        </CharString>
        <CharString name="Uacute">
          229 563 -105 callsubr
          393 169 -48 callsubr
          endchar
        </CharString>
        <CharString name="Ubreve">
          229 563 -105 callsubr
          546 166 37 callgsubr
          -132 hlineto
          -174 -30 165 callgsubr
        </CharString>
        <CharString name="Ucaron">
          229 563 -105 callsubr
          458 167 239 callgsubr
          341 309 rlineto
          -190 -27 callgsubr
        </CharString>
        <CharString name="Ucircumflex">
          229 563 -105 callsubr
          676 478 42 callsubr
        </CharString>
        <CharString name="Ucircumflexbelow">
          229 563 -105 callsubr
          142 -1609 rmoveto
          -333 -342 rlineto
          202 45 callsubr
          132 -227 rlineto
          187 hlineto
          -214 342 rlineto
          endchar
        </CharString>
        <CharString name="Ucyrillic">
          1460 1443 -74 callsubr
          endchar
        </CharString>
        <CharString name="Udblgrave">
          981 27 callsubr
          218 -304 185 callgsubr
          -572 -1049 -28 callgsubr
        </CharString>
        <CharString name="Udieresis">
          229 563 -105 callsubr
          364 208 rmoveto
          63 54 56 65 66 -54 55 -63 -58 callgsubr
          -54 -55 -66 69 callgsubr
          hvcurveto
          endchar
        </CharString>
        <CharString name="Udieresisacute">
          229 563 -105 callsubr
          439 416 rmoveto
          179 hlineto
          272 224 rlineto
          -204 hlineto
          -334 -517 rmoveto
          17 callsubr
          389 hmoveto
          55 callsubr
        </CharString>
        <CharString name="Udieresisbelow">
          229 563 -105 callsubr
          12 -1887 rmoveto
          65 callgsubr
          404 hmoveto
          62 -41 callsubr
          56 -62 -63 -55 -56 113 callgsubr
          endchar
        </CharString>
        <CharString name="Udieresiscaron">
          229 563 -105 callsubr
          640 411 rmoveto
          324 246 rlineto
          -200 hlineto
          -197 -153 rlineto
          -14 hlineto
          -145 153 rlineto
          -183 hlineto
          240 -246 rlineto
          -113 -288 rmoveto
          222 callgsubr
          231 callgsubr
          389 hmoveto
          17 callsubr
          endchar
        </CharString>
        <CharString name="Udieresisgrave">
          736 1566 rmoveto
          222 callgsubr
          231 callgsubr
          389 hmoveto
          59 47 49 61 62 -47 231 callgsubr
          -253 517 rmoveto
          -199 hlineto
          194 -224 225 callgsubr
          -812 -1296 -28 callgsubr
        </CharString>
        <CharString name="Udieresismacron">
          229 563 -105 callsubr
          742 343 rmoveto
          151 callgsubr
          62 -47 48 -59 hvcurveto
          177 170 callgsubr
          -59 -47 -48 254 callgsubr
          59 171 callgsubr
        </CharString>
        <CharString name="Udotbelow">
          229 563 -105 callsubr
          214 -1894 -98 callsubr
          endchar
        </CharString>
        <CharString name="Ugrave">
          803 1916 39 callsubr
          -779 -1049 -28 callgsubr
        </CharString>
        <CharString name="Uhookabove">
          229 563 -105 callsubr
          395 373 rmoveto
          13 25 45 9 42 hhcurveto
          62 39 -29 -44 -42 -42 -44 -64 -22 hvcurveto
          61 -86 rlineto
          106 37 68 82 92 vvcurveto
          105 -80 67 -124 -47 -52 -10 -15 -34 vhcurveto
          endchar
        </CharString>
        <CharString name="Uhorn">
          689 -30 -8 callgsubr
        </CharString>
        <CharString name="Uhornacute">
          689 -30 rmoveto
          278 196 177 300 53 hvcurveto
          154 867 rlineto
          -82 callsubr
          vhcurveto
          70 1642 -48 callsubr
          endchar
        </CharString>
        <CharString name="Uhorndotbelow">
          573 20 callgsubr
          116 421 -8 callgsubr
        </CharString>
        <CharString name="Uhorngrave">
          1370 1314 rmoveto
          -82 callsubr
          278 196 177 300 53 vhcurveto
          -363 1469 39 callsubr
          endchar
        </CharString>
        <CharString name="Uhornhookabove">
          779 1816 -29 callgsubr
          -96 -1959 -8 callgsubr
        </CharString>
        <CharString name="Uhorntilde">
          689 -30 rmoveto
          278 196 177 300 53 hvcurveto
          154 867 rlineto
          -82 callsubr
          vhcurveto
          95 1807 rmoveto
          101 27 -159 156 4 callsubr
        </CharString>
        <CharString name="Uhungarumlaut">
          229 563 -105 callsubr
          612 169 rmoveto
          176 hlineto
          324 304 rlineto
          -195 hlineto
          -684 -304 110 callgsubr
          endchar
        </CharString>
        <CharString name="Uinvertedbreve">
          229 563 -105 callsubr
          577 475 3 callgsubr
        </CharString>
        <CharString name="Umacron">
          229 563 -105 callsubr
          868 252 -95 callgsubr
          endchar
        </CharString>
        <CharString name="Umacrondieresis">
          229 563 -105 callsubr
          375 436 36 callsubr
        </CharString>
        <CharString name="Uogonek">
          890 -423 rmoveto
          41 27 3 9 28 hvcurveto
          21 121 rlineto
          -3 -12 -22 -1 -24 hhcurveto
          -76 -49 39 59 79 41 54 155 131 hvcurveto
          110 89 64 121 31 174 175 991 rcurveline
          -175 hlineto
          -172 -969 rlineto
          -205 -37 -140 -132 -177 hhcurveto
          -185 -121 124 189 33 4 45 7 30 hvcurveto
          156 885 rlineto
          -175 hlineto
          -156 -880 rlineto
          -9 -40 -4 -39 -51 vvcurveto
          -279 190 -184 286 2 vhcurveto
          42 43 10 15 30 hvcurveto
          -1 -12 rlineto
          -95 -66 -46 -72 -86 vvcurveto
          -105 96 -79 129 vhcurveto
          endchar
        </CharString>
        <CharString name="Upsilondieresisgreek">
          -81 callgsubr
          184 1651 -70 callsubr
        </CharString>
        <CharString name="Upsilongreek">
          -81 callgsubr
          endchar
        </CharString>
        <CharString name="Upsilontonosgreek">
          885 hmoveto
          106 598 507 845 rlineto
          -197 hlineto
          -358 -660 rlineto
          -12 hlineto
          -133 660 rlineto
          -180 hlineto
          204 -846 -106 -597 rlineto
          -505 121 callgsubr
        </CharString>
        <CharString name="Uring">
          229 563 -105 callsubr
          533 116 62 callsubr
        </CharString>
        <CharString name="Ushortcyrillic">
          1460 1443 -74 callsubr
          296 1544 rmoveto
          -25 callgsubr
          85 callsubr
          198 hhcurveto
          251 callsubr
          77 callgsubr
          endchar
        </CharString>
        <CharString name="Utilde">
          229 563 -105 callsubr
          401 334 rmoveto
          101 28 -159 155 4 callsubr
        </CharString>
        <CharString name="Utildeacute">
          229 563 -105 callsubr
          448 451 rmoveto
          153 hlineto
          164 218 -8 callsubr
          -210 -420 rmoveto
          102 6 -135 166 hhcurveto
          125 88 99 139 6 hvcurveto
          -124 hlineto
          -78 -6 -34 -42 -54 -102 -6 135 -167 hhcurveto
          -125 -87 48 callgsubr
        </CharString>
        <CharString name="Utildebelow">
          229 563 -105 callsubr
          70 -1751 rmoveto
          87 40 -159 -66 callgsubr
          111 2 206 callgsubr
        </CharString>
        <CharString name="V">
          26 callsubr
          endchar
        </CharString>
        <CharString name="Vdotbelow">
          26 callsubr
          -694 -1894 -98 callsubr
          endchar
        </CharString>
        <CharString name="Vecyrillic">
          -91 callsubr
          endchar
        </CharString>
        <CharString name="Vtilde">
          26 callsubr
          -492 334 50 callsubr
        </CharString>
        <CharString name="W">
          803 895 -85 callgsubr
          endchar
        </CharString>
        <CharString name="Wacute">
          803 895 -85 callgsubr
          -20 717 rmoveto
          193 hlineto
          333 -22 callsubr
          endchar
        </CharString>
        <CharString name="Wcircumflex">
          803 895 -85 callgsubr
          263 1026 rmoveto
          -160 -4 callsubr
        </CharString>
        <CharString name="Wdieresis">
          803 895 -85 callgsubr
          -49 756 rmoveto
          -61 callgsubr
          -58 callgsubr
          -55 -55 113 callgsubr
          endchar
        </CharString>
        <CharString name="Wdotaccent">
          803 895 -85 callgsubr
          156 745 -97 callsubr
          endchar
        </CharString>
        <CharString name="Wdotbelow">
          803 895 -85 callgsubr
          -216 -1346 -98 callsubr
          endchar
        </CharString>
        <CharString name="Wgrave">
          773 1916 39 callsubr
          -175 -717 -85 callgsubr
          endchar
        </CharString>
        <CharString name="X">
          -57 callgsubr
          endchar
        </CharString>
        <CharString name="Xacyrillic">
          -57 callgsubr
          endchar
        </CharString>
        <CharString name="Xdieresis">
          -57 callgsubr
          90 924 rmoveto
          -61 callgsubr
          -58 callgsubr
          -55 -55 113 callgsubr
          endchar
        </CharString>
        <CharString name="Xdotaccent">
          -57 callgsubr
          295 913 -97 callsubr
          endchar
        </CharString>
        <CharString name="Xigreek">
          159 hmoveto
          948 hlineto
          28 167 rlineto
          -947 hlineto
          167 484 rmoveto
          789 hlineto
          27 166 rlineto
          -789 hlineto
          4 459 rmoveto
          947 hlineto
          28 167 rlineto
          -948 hlineto
          endchar
        </CharString>
        <CharString name="Y">
          -81 callgsubr
          endchar
        </CharString>
        <CharString name="Yacute">
          -81 callgsubr
          213 190 callgsubr
          endchar
        </CharString>
        <CharString name="Ycircumflex">
          -81 callgsubr
          495 1921 rmoveto
          -159 -4 callsubr
        </CharString>
        <CharString name="Ydieresis">
          -81 callgsubr
          184 1651 -70 callsubr
        </CharString>
        <CharString name="Ydotaccent">
          -81 callgsubr
          389 1640 -97 callsubr
          endchar
        </CharString>
        <CharString name="Ydotbelow">
          -81 callgsubr
          29 20 callgsubr
          endchar
        </CharString>
        <CharString name="Yericyrillic">
          402 749 -62 callsubr
        </CharString>
        <CharString name="Ygrave">
          760 83 callsubr
          -244 -1612 rmoveto
          106 599 639 844 rlineto
          -205 hlineto
          -493 -663 rlineto
          -12 hlineto
          -270 663 rlineto
          -185 hlineto
          351 -845 -106 -598 rlineto
          endchar
        </CharString>
        <CharString name="Yhookabove">
          -81 callgsubr
          214 1816 -29 callgsubr
          endchar
        </CharString>
        <CharString name="Yicyrillic">
          1013 hmoveto
          -100 callgsubr
          490 1651 rmoveto
          -61 callgsubr
          -58 callgsubr
          -55 -55 113 callgsubr
          endchar
        </CharString>
        <CharString name="Ymacron">
          -81 callgsubr
          702 83 callgsubr
          endchar
        </CharString>
        <CharString name="Ytilde">
          -81 callgsubr
          220 1777 -34 callgsubr
        </CharString>
        <CharString name="Z">
          -67 callgsubr
          endchar
        </CharString>
        <CharString name="Zacute">
          -67 callgsubr
          611 1475 -48 callsubr
          endchar
        </CharString>
        <CharString name="Zcaron">
          -67 callgsubr
          677 1473 43 callgsubr
        </CharString>
        <CharString name="Zcircumflex">
          -67 callgsubr
          894 1784 rmoveto
          -159 hlineto
          -341 38 callgsubr
          endchar
        </CharString>
        <CharString name="Zdotaccent">
          -67 callgsubr
          787 1503 rmoveto
          68 223 callsubr
          -68 -67 -59 -58 -70 -70 59 -59 67 hvcurveto
          endchar
        </CharString>
        <CharString name="Zdotbelow">
          -67 callgsubr
          417 -588 -98 callsubr
          endchar
        </CharString>
        <CharString name="Zecyrillic">
          -66 callsubr
          endchar
        </CharString>
        <CharString name="Zetagreek">
          -67 callgsubr
          endchar
        </CharString>
        <CharString name="Zhecyrillic">
          -45 callgsubr
          endchar
        </CharString>
        <CharString name="Zlinebelow">
          -67 callgsubr
          735 -532 -95 callgsubr
          endchar
        </CharString>
        <CharString name="a">
          -107 callgsubr
          endchar
        </CharString>
        <CharString name="aacute">
          926 1296 rmoveto
          324 -49 callsubr
          211 -785 -89 callsubr
        </CharString>
        <CharString name="abreve">
          -107 callgsubr
          254 1118 71 callsubr
          endchar
        </CharString>
        <CharString name="abreveacute">
          -107 callgsubr
          187 1531 rmoveto
          155 hlineto
          285 308 rlineto
          -184 hlineto
          -191 -712 rmoveto
          208 156 132 199 29 hvcurveto
          -142 hlineto
          114 callsubr
          endchar
        </CharString>
        <CharString name="abrevedotbelow">
          -107 callgsubr
          254 1118 71 callsubr
          -308 -1700 -98 callsubr
          endchar
        </CharString>
        <CharString name="abrevegrave">
          1127 1589 rmoveto
          114 callsubr
          207 callsubr
          132 199 30 hvcurveto
          -427 381 rmoveto
          -179 hlineto
          177 -308 rlineto
          150 hlineto
          -40 -1151 -89 callsubr
        </CharString>
        <CharString name="abrevehookabove">
          -107 callgsubr
          254 1127 177 callsubr
          -97 -81 -120 30 callsubr
          -145 596 rmoveto
          17 33 38 9 38 hhcurveto
          62 39 -28 -45 -45 -41 -42 -63 -21 hvcurveto
          64 -92 rlineto
          110 38 179 callsubr
        </CharString>
        <CharString name="abrevetilde">
          -107 callgsubr
          254 1127 177 callsubr
          -97 -81 -120 30 callsubr
          -60 593 rmoveto
          87 40 -159 -66 callgsubr
          111 96 callsubr
        </CharString>
        <CharString name="acaron">
          -107 callgsubr
          335 1165 rmoveto
          333 -32 callsubr
          -132 227 rlineto
          -186 hlineto
          213 -342 rlineto
          endchar
        </CharString>
        <CharString name="acircumflex">
          -107 callgsubr
          198 1492 -86 callgsubr
          endchar
        </CharString>
        <CharString name="acircumflexacute">
          -107 callgsubr
          500 1531 rmoveto
          168 hlineto
          284 308 rlineto
          -194 hlineto
          -560 -345 -86 callgsubr
          endchar
        </CharString>
        <CharString name="acircumflexdotbelow">
          -107 callgsubr
          198 1492 -86 callgsubr
          -452 -2074 -98 callsubr
          endchar
        </CharString>
        <CharString name="acircumflexgrave">
          -107 callgsubr
          755 1531 rmoveto
          -151 308 rlineto
          -184 hlineto
          177 -308 rlineto
          -399 -37 -86 callgsubr
          endchar
        </CharString>
        <CharString name="acircumflexhookabove">
          -107 callgsubr
          198 1494 -86 callgsubr
          2 229 rmoveto
          16 33 39 9 38 hhcurveto
          62 38 -27 -45 -46 -40 -41 -64 -21 hvcurveto
          65 -93 rlineto
          110 39 180 callgsubr
        </CharString>
        <CharString name="acircumflextilde">
          -107 callgsubr
          195 1740 rmoveto
          86 40 -153 160 hhcurveto
          136 142 callsubr
          -25 -43 -59 -86 151 callsubr
          -6 132 callsubr
          109 4 26 44 59 hhcurveto
          3 -246 -86 callgsubr
          endchar
        </CharString>
        <CharString name="acute">
          823 65 callsubr
          endchar
        </CharString>
        <CharString name="acutecmb">
          842 65 callsubr
          endchar
        </CharString>
        <CharString name="acutecmb.short">
          768 192 callsubr
          endchar
        </CharString>
        <CharString name="acutedotaccentcmb">
          703 1345 -35 callgsubr
          69 -58 59 -68 -68 -58 -59 -69 -38 callsubr
          377 -51 -33 callgsubr
          endchar
        </CharString>
        <CharString name="acutedotaccentcmb.short">
          972 190 callgsubr
          -485 -227 -98 callsubr
          endchar
        </CharString>
        <CharString name="acyrillic">
          -107 callgsubr
          endchar
        </CharString>
        <CharString name="adblgrave">
          948 1635 rmoveto
          -187 hlineto
          190 10 callgsubr
          216 -785 -89 callsubr
        </CharString>
        <CharString name="adieresis">
          -107 callgsubr
          63 1168 rmoveto
          63 54 56 65 66 -54 55 -63 -58 callgsubr
          -54 -55 -66 69 callgsubr
          hvcurveto
          endchar
        </CharString>
        <CharString name="adieresismacron">
          -107 callgsubr
          465 1423 rmoveto
          153 callsubr
          -7 callgsubr
          65 -55 33 callgsubr
          660 hlineto
          227 callgsubr
          endchar
        </CharString>
        <CharString name="adotaccent">
          -107 callgsubr
          263 1168 -97 callsubr
          endchar
        </CharString>
        <CharString name="adotbelow">
          -107 callgsubr
          -54 -582 -98 callsubr
          endchar
        </CharString>
        <CharString name="adotmacron">
          -107 callgsubr
          646 1599 -95 callgsubr
          276 -438 47 callgsubr
        </CharString>
        <CharString name="ae">
          1273 289 rmoveto
          -143 hlineto
          -82 callgsubr
          -85 340 rmoveto
          -380 hlineto
          26 callgsubr
          -788 -492 rmoveto
          126 callsubr
          184 15 125 callsubr
          endchar
        </CharString>
        <CharString name="aeacute">
          900 65 callsubr
          -74 -799 rmoveto
          125 callsubr
          126 callsubr
          353 147 rmoveto
          26 callgsubr
          -58 -340 rmoveto
          -82 callgsubr
          endchar
        </CharString>
        <CharString name="aemacron">
          1273 289 rmoveto
          -143 hlineto
          -82 callgsubr
          -85 340 rmoveto
          -380 hlineto
          26 callgsubr
          -788 -492 rmoveto
          126 callsubr
          184 15 125 callsubr
          781 1233 -95 callgsubr
          endchar
        </CharString>
        <CharString name="agrave">
          -107 callgsubr
          361 1165 -34 callsubr
          endchar
        </CharString>
        <CharString name="ahookabove">
          -107 callgsubr
          93 1357 213 callsubr
          37 hhcurveto
          62 39 -28 -44 -46 -41 -42 -63 -1 callsubr
        </CharString>
        <CharString name="ainvertedbreve">
          -107 callgsubr
          282 1458 5 callgsubr
          138 171 callsubr
          -204 hhcurveto
          endchar
        </CharString>
        <CharString name="alphagreek">
          -47 callgsubr
          endchar
        </CharString>
        <CharString name="alphatonosgreek">
          -47 callgsubr
          -9 339 5 callsubr
          endchar
        </CharString>
        <CharString name="amacron">
          -107 callgsubr
          583 1239 -95 callgsubr
          endchar
        </CharString>
        <CharString name="ampersand">
          547 678 rmoveto
          46 24 277 -458 -97 -84 -123 -43 -117 7 rlinecurve
          -157 8 -95 111 20 151 15 117 75 88 156 79 rrcurveto
          461 -678 rmoveto
          197 hlineto
          -154 238 97 119 62 154 29 189 rlinecurve
          3 28 rlineto
          -147 hlineto
          -1 -13 -29 -168 -33 -94 -60 -82 rlinecurve
          -243 410 227 121 91 103 21 150 rlinecurve
          27 177 -112 130 -187 10 -192 10 -154 -124 -26 -186 -15 -101 33 -114 84 -135 -52 -28 rcurveline
          -203 -107 -112 -136 -20 -161 -30 -234 149 -167 250 -14 153 -9 154 54 123 104 rrcurveto
          -20 1029 rmoveto
          -16 -106 -62 -67 -177 -95 -76 123 -25 79 12 80 16 99 87 72 99 -6 97 -6 61 -75 -16 -98 rrcurveto
          endchar
        </CharString>
        <CharString name="anoteleia">
          793 785 rmoveto
          85 63 65 85 84 -63 66 -85 -84 -64 -66 -84 -85 64 -65 84 hvcurveto
          endchar
        </CharString>
        <CharString name="aogonek">
          625 131 rmoveto
          -129 -82 70 110 1 hvcurveto
          1 126 103 72 183 1 253 1 rcurveline
          -24 -128 rlineto
          -141 -25 -137 -111 -144 hhcurveto
          263 -95 rmoveto
          -177 -92 -54 -64 -109 vvcurveto
          -113 93 -83 126 38 25 3 8 22 vhcurveto
          21 121 rlineto
          -4 -14 -5 -1 -21 hhcurveto
          -74 -51 43 62 78 63 56 154 59 hvcurveto
          -9 callgsubr
          18 87 3 27 55 vvcurveto
          183 -151 121 -226 -222 -178 -121 -172 -34 71 callgsubr
          87 28 102 59 119 hhcurveto
          135 85 -70 -109 -27 -2 -21 -4 -27 hvcurveto
          -10 -55 -274 -2 -300 -3 -166 -126 2 -225 rlinecurve
          -180 2 133 -125 193 hhcurveto
          129 141 75 99 52 hvcurveto
          19 hlineto
          endchar
        </CharString>
        <CharString name="approxequal">
          585 758 rmoveto
          40 31 -21 -68 67 hvcurveto
          -75 71 66 -33 203 callgsubr
          -5 -41 -52 -77 hhcurveto
          -37 -32 20 67 -67 hvcurveto
          76 -77 -64 32 -72 hhcurveto
          -164 -99 -115 -193 1 hvcurveto
          139 hlineto
          106 7 39 52 75 hhcurveto
          -77 -442 rmoveto
          40 34 -21 -67 64 hvcurveto
          -75 72 65 -32 203 callgsubr
          -6 -41 -54 -76 hhcurveto
          -37 -29 19 69 -71 hvcurveto
          77 -77 -63 32 -72 hhcurveto
          -163 -100 -116 -192 1 hvcurveto
          138 hlineto
          105 7 39 51 76 hhcurveto
          endchar
        </CharString>
        <CharString name="aring">
          -107 callgsubr
          273 1229 rmoveto
          -68 -51 53 69 69 51 10 callsubr
        </CharString>
        <CharString name="aringacute">
          1014 1723 rmoveto
          235 241 252 callsubr
          -206 -241 rlineto
          23 -493 rmoveto
          111 88 86 111 112 -88 86 -111 -112 -88 -86 -112 -111 88 -86 112 hvcurveto
          93 vmoveto
          -60 -45 45 59 60 45 45 60 59 45 -45 -60 -59 -45 -45 -59 hvcurveto
          63 -812 -89 callsubr
        </CharString>
        <CharString name="aringbelow">
          -107 callgsubr
          -55 -616 rmoveto
          -67 -51 52 70 69 51 53 67 67 51 -53 -69 -70 -51 -52 -67 hvcurveto
          -109 vmoveto
          125 101 103 128 127 -101 104 -125 -124 -102 -104 -127 -128 102 -103 124 hvcurveto
          endchar
        </CharString>
        <CharString name="asciicircum">
          858 1275 rmoveto
          18 hlineto
          127 -570 rlineto
          161 hlineto
          -183 738 rlineto
          -188 hlineto
          -439 -738 rlineto
          175 hlineto
          endchar
        </CharString>
        <CharString name="asciitilde">
          546 905 rmoveto
          -169 -113 -130 -196 -5 0 -13 1 -5 hvcurveto
          159 hlineto
          119 7 46 60 83 hhcurveto
          45 40 -25 -74 70 hvcurveto
          -89 87 72 -35 97 hhcurveto
          169 111 129 197 4 0 13 -1 5 hvcurveto
          -156 hlineto
          -116 -7 -45 -63 -78 hhcurveto
          -50 -42 26 73 -70 hvcurveto
          90 -88 -71 35 -97 hhcurveto
          endchar
        </CharString>
        <CharString name="asterisk">
          1317 766 rmoveto
          -49 141 -445 -175 94 466 -140 26 -72 -473 -359 319 -91 -115 370 -295 -450 -151 48 -140 446 175 -94 -466 140 -27 71 474 359 -319 91 115 -370 295 rlineto
          endchar
        </CharString>
        <CharString name="at">
          684 -201 rmoveto
          82 77 10 16 38 hvcurveto
          20 118 rlineto
          -15 -42 -74 -10 -73 hhcurveto
          -270 -129 137 287 76 8 84 17 93 hvcurveto
          28 154 rlineto
          417 74 151 189 257 hhcurveto
          234 130 -132 -239 -54 -6 -57 -11 -63 hvcurveto
          -45 -252 rlineto
          -97 -18 -46 -40 -96 hhcurveto
          -142 hlineto
          68 390 rlineto
          2 12 2 18 8 vvcurveto
          67 -38 40 -66 -66 -47 -47 -82 -14 vhcurveto
          -65 -377 rlineto
          -1 -8 -3 -20 -10 vvcurveto
          -67 37 -39 61 vhcurveto
          278 hlineto
          160 86 78 178 32 hvcurveto
          46 262 rlineto
          11 63 6 60 58 vvcurveto
          301 -173 170 -302 -323 -215 -245 -464 -81 vhcurveto
          -34 -187 rlineto
          -16 -107 -8 -81 -63 vvcurveto
          -352 168 -178 331 vhcurveto
          endchar
        </CharString>
        <CharString name="atilde">
          -107 callgsubr
          114 1294 rmoveto
          87 41 -159 160 hhcurveto
          138 87 109 181 6 hvcurveto
          -139 37 callsubr
          60 hhcurveto
          endchar
        </CharString>
        <CharString name="austral">
          852 223 callgsubr
          55 -413 rlineto
          -265 hlineto
          304 -294 rmoveto
          -446 hlineto
          89 182 rlineto
          332 hlineto
          94 -706 rmoveto
          180 hlineto
          -63 405 rlineto
          126 hlineto
          21 119 241 callgsubr
          -28 178 rlineto
          224 hlineto
          21 120 rlineto
          -262 hlineto
          -94 621 rlineto
          -188 hlineto
          -312 -621 rlineto
          -262 hlineto
          -21 -120 rlineto
          225 hlineto
          -92 -178 241 callgsubr
          -21 -119 rlineto
          127 hlineto
          -207 -405 rlineto
          184 hlineto
          200 405 rlineto
          515 hlineto
          endchar
        </CharString>
        <CharString name="b">
          -80 callsubr
          endchar
        </CharString>
        <CharString name="backslash">
          1044 -137 rmoveto
          -402 1717 214 callgsubr
          405 -1717 rlineto
          endchar
        </CharString>
        <CharString name="baht">
          892 1288 rmoveto
          133 -13 70 -71 -1 -120 -1 -147 -114 -103 -170 -13 rrcurveto
          -118 -668 rmoveto
          92 519 rlineto
          178 -8 97 -83 -145 vvcurveto
          -172 -144 -111 -222 vhcurveto
          -310 hmoveto
          94 520 rlineto
          192 hlineto
          -91 -520 rlineto
          9 1138 rmoveto
          191 hlineto
          -83 -471 rlineto
          -193 hlineto
          445 776 rmoveto
          -115 hlineto
          -27 -153 rlineto
          -368 -98 callgsubr
          368 hlineto
          -26 -147 rlineto
          114 hlineto
          26 147 rlineto
          36 hlineto
          329 208 164 259 2 hvcurveto
          1 168 -100 125 -159 30 2 11 rcurveline
          172 35 122 147 2 175 1 196 -134 122 -227 10 rrcurveto
          endchar
        </CharString>
        <CharString name="bar">
          626 -483 rmoveto
          363 2063 rlineto
          -157 hlineto
          -362 -2063 rlineto
          endchar
        </CharString>
        <CharString name="bdotaccent">
          -80 callsubr
          298 1162 -97 callsubr
          endchar
        </CharString>
        <CharString name="bdotbelow">
          -80 callsubr
          -146 -588 -98 callsubr
          endchar
        </CharString>
        <CharString name="becyrillic">
          712 137 rmoveto
          -177 -116 131 199 56 6 51 13 48 hvcurveto
          181 45 121 114 161 hhcurveto
          176 117 -120 -179 -73 -2 -26 -12 -54 hvcurveto
          -206 -43 -124 -122 -165 hhcurveto
          -260 725 rmoveto
          97 327 131 118 268 1 195 1 107 14 75 32 27 157 rcurveline
          -89 -33 -137 -20 -162 -2 -384 -4 -195 -197 -107 -491 rrcurveto
          -22 -95 -12 -90 -83 vvcurveto
          -319 174 -197 279 274 190 173 302 57 vhcurveto
          15 78 3 27 65 vvcurveto
          260 -167 174 -254 -166 -122 -68 -130 -69 vhcurveto
          endchar
        </CharString>
        <CharString name="betagreek">
          129 -366 rmoveto
          164 hlineto
          102 584 rlineto
          9 hlineto
          -143 36 141 -93 174 hhcurveto
          297 159 209 265 175 -90 137 -147 38 hvcurveto
          2 11 rlineto
          169 52 95 133 191 vvcurveto
          206 -155 132 -227 -269 -152 -137 -312 -54 vhcurveto
          346 -944 rmoveto
          -163 -129 116 169 54 4 20 11 61 hvcurveto
          90 501 rlineto
          224 41 96 98 164 hhcurveto
          150 86 -79 -129 -186 -109 -95 -193 hvcurveto
          -94 hlineto
          -26 -152 rlineto
          74 hlineto
          188 124 -112 -172 -191 -121 -127 -193 hvcurveto
          endchar
        </CharString>
        <CharString name="bitcoin">
          945 758 rmoveto
          195 32 128 141 191 vvcurveto
          143 -93 103 -156 33 vhcurveto
          44 209 rlineto
          -115 hlineto
          -40 -196 88 callsubr
          40 196 rlineto
          -115 hlineto
          -40 -196 241 callgsubr
          -286 -1387 175 callsubr
          -40 -196 rlineto
          114 hlineto
          40 196 185 callgsubr
          -40 -196 rlineto
          114 hlineto
          41 198 rlineto
          279 16 189 182 236 vvcurveto
          151 -108 107 -154 23 vhcurveto
          -336 523 rmoveto
          228 hlineto
          172 86 -70 -119 -156 -133 -107 -201 hvcurveto
          -248 hlineto
          -133 -640 rmoveto
          106 500 rlineto
          259 hlineto
          188 96 -78 -136 -162 -145 -124 -206 hvcurveto
          endchar
        </CharString>
        <CharString name="blinebelow">
          -80 callsubr
          172 -532 -95 callgsubr
          endchar
        </CharString>
        <CharString name="braceleft">
          978 -137 rmoveto
          23 142 rlineto
          -108 hlineto
          -115 -38 28 85 28 4 35 8 43 hvcurveto
          45 260 rlineto
          3 14 1 16 22 vvcurveto
          124 -103 87 -162 11 vhcurveto
          3 17 210 3 111 66 23 132 rlinecurve
          47 267 rlineto
          163 29 24 21 160 hhcurveto
          109 hlineto
          24 146 rlineto
          -137 hlineto
          -253 -77 -63 -236 -42 hvcurveto
          -38 -223 rlineto
          -146 -26 -87 -46 -246 hhcurveto
          -30 -180 rlineto
          190 96 -64 -128 -17 -2 -20 -3 -21 hvcurveto
          -39 -217 rlineto
          -8 -47 -4 -42 -35 vvcurveto
          -160 80 -65 193 vhcurveto
          endchar
        </CharString>
        <CharString name="braceright">
          534 1573 rmoveto
          -23 -142 rlineto
          108 hlineto
          115 38 -28 -85 -28 -4 -35 -8 -43 hvcurveto
          -46 -260 rlineto
          -3 -14 -1 -16 -22 vvcurveto
          -124 104 -87 162 -11 vhcurveto
          -3 -17 -210 -3 -111 -66 -23 -132 rlinecurve
          -47 -267 rlineto
          -163 -29 -24 -21 -160 hhcurveto
          -109 hlineto
          -24 -146 rlineto
          136 hlineto
          254 77 63 236 42 hvcurveto
          38 223 rlineto
          146 25 88 46 246 hhcurveto
          30 180 rlineto
          -190 -97 64 128 17 2 20 4 21 hvcurveto
          39 217 rlineto
          8 47 4 42 35 vvcurveto
          160 -80 65 -193 vhcurveto
          endchar
        </CharString>
        <CharString name="bracketleft">
          650 1580 rmoveto
          -300 -1717 rlineto
          529 hlineto
          23 137 rlineto
          -364 -53 callsubr
          362 hlineto
          23 137 rlineto
          endchar
        </CharString>
        <CharString name="bracketright">
          644 1580 rmoveto
          -24 -137 rlineto
          362 -98 callgsubr
          -364 hlineto
          -22 -137 rlineto
          529 hlineto
          300 1717 rlineto
          endchar
        </CharString>
        <CharString name="breve">
          52 callsubr
        </CharString>
        <CharString name="breveacutecmb">
          808 1662 rmoveto
          155 hlineto
          284 308 rlineto
          -184 hlineto
          -190 -712 177 callsubr
          -96 -81 -121 30 callsubr
          endchar
        </CharString>
        <CharString name="breveacutecmb.short">
          838 1862 rmoveto
          158 hlineto
          228 221 rlineto
          -183 hlineto
          -109 -504 rmoveto
          138 callsubr
          -141 hlineto
          12 callsubr
          endchar
        </CharString>
        <CharString name="brevebelowcmb">
          585 -477 89 callgsubr
          143 -150 205 hhcurveto
          endchar
        </CharString>
        <CharString name="brevecmb">
          52 callsubr
        </CharString>
        <CharString name="brevecmb.short">
          926 1609 rmoveto
          241 callsubr
          -140 hlineto
          38 callsubr
          -29 165 callgsubr
        </CharString>
        <CharString name="brevecyrillic">
          869 1259 rmoveto
          251 callsubr
          197 callgsubr
          -143 hlineto
          -26 callsubr
          endchar
        </CharString>
        <CharString name="brevecyrillic.short">
          880 1612 rmoveto
          49 callgsubr
          -143 hlineto
          115 callgsubr
          endchar
        </CharString>
        <CharString name="brevegravecmb">
          1124 1589 rmoveto
          -119 -18 -96 -81 -121 30 callsubr
          106 callsubr
          -427 381 rmoveto
          -179 hlineto
          178 -308 rlineto
          150 hlineto
          endchar
        </CharString>
        <CharString name="brevegravecmb.short">
          1059 178 callgsubr
          14 -283 rmoveto
          138 callsubr
          -141 hlineto
          12 callsubr
          endchar
        </CharString>
        <CharString name="brevehookabovecmb">
          876 1258 rmoveto
          208 155 132 33 callsubr
          -151 205 hhcurveto
          -146 596 235 callgsubr
          62 38 -28 -45 -45 -40 -42 -64 -21 hvcurveto
          65 -92 rlineto
          110 38 180 callgsubr
        </CharString>
        <CharString name="brevehookabovecmb.short">
          794 1998 rmoveto
          11 22 43 8 37 hhcurveto
          47 29 -22 -35 -45 -37 -40 -62 -22 hvcurveto
          65 -70 rlineto
          185 callsubr
          118 -516 rmoveto
          198 142 105 164 26 hvcurveto
          -138 hlineto
          131 callsubr
          endchar
        </CharString>
        <CharString name="brevetildecmb">
          876 1258 rmoveto
          208 155 132 33 callsubr
          -151 205 hhcurveto
          -60 593 rmoveto
          87 40 -159 160 hhcurveto
          138 238 callgsubr
          7 204 callgsubr
          -159 19 callsubr
        </CharString>
        <CharString name="brevetildecmb.short">
          926 1579 rmoveto
          133 callgsubr
          -133 hlineto
          -147 16 123 -90 185 hhcurveto
          -98 410 rmoveto
          191 callsubr
          -122 hlineto
          120 callsubr
          hhcurveto
          endchar
        </CharString>
        <CharString name="brokenbar">
          849 782 202 callsubr
          -67 -1265 202 callsubr
          endchar
        </CharString>
        <CharString name="bullet">
          746 216 rmoveto
          232 190 191 233 233 -190 191 -232 -231 -190 -191 -233 -233 190 -191 231 hvcurveto
          endchar
        </CharString>
        <CharString name="c">
          1221 725 -87 callgsubr
          endchar
        </CharString>
        <CharString name="cacute">
          1221 725 -87 callgsubr
          -153 571 -33 callgsubr
          endchar
        </CharString>
        <CharString name="caron">
          959 1296 rmoveto
          333 -32 callsubr
          -132 227 rlineto
          -186 hlineto
          213 -342 rlineto
          endchar
        </CharString>
        <CharString name="caroncmb">
          956 1296 -45 callsubr
          endchar
        </CharString>
        <CharString name="caroncmb.short">
          838 1610 43 callgsubr
        </CharString>
        <CharString name="carondotaccentcmb">
          964 1288 -45 callsubr
          167 410 170 callsubr
          endchar
        </CharString>
        <CharString name="carondotaccentcmb.short">
          923 1868 63 callgsubr
          241 -237 rlineto
          endchar
        </CharString>
        <CharString name="ccaron">
          932 1296 -45 callsubr
          489 -571 -87 callgsubr
          endchar
        </CharString>
        <CharString name="ccedilla">
          1221 725 rmoveto
          17 vlineto
          218 -168 146 -253 -264 -186 -161 -271 -47 vhcurveto
          -10 -57 -12 -72 -5 -34 rrcurveto
          -6 -46 -3 -38 -33 vvcurveto
          -224 127 -150 213 -34 vhcurveto
          -67 -128 -57 callsubr
          58 113 211 12 162 130 43 193 rlinecurve
          -24 callgsubr
          endchar
        </CharString>
        <CharString name="ccedillaacute">
          1223 1635 rmoveto
          -28 callsubr
          187 hlineto
          -360 -1438 rmoveto
          -57 callsubr
          58 113 211 12 162 130 43 193 rlinecurve
          -78 callsubr
          169 17 vlineto
          218 -168 146 -253 -264 -186 -161 -271 -47 vhcurveto
          -10 -57 -12 -72 -5 -34 rrcurveto
          -6 -46 -3 -38 -33 vvcurveto
          -224 127 -150 213 -34 vhcurveto
          endchar
        </CharString>
        <CharString name="ccircumflex">
          795 102 callgsubr
          225 -898 -87 callgsubr
          endchar
        </CharString>
        <CharString name="cdotaccent">
          860 39 callgsubr
          361 -574 -87 callgsubr
          endchar
        </CharString>
        <CharString name="cedi">
          1329 967 rmoveto
          4 27 2 25 22 vvcurveto
          225 -149 164 -226 36 vhcurveto
          23 130 rlineto
          -115 hlineto
          -22 -123 -307 -8 -200 -209 -65 -378 rlinecurve
          -40 -229 rlineto
          -8 -44 -6 -63 -53 vvcurveto
          -274 136 -185 227 -48 vhcurveto
          -28 -160 rlineto
          115 hlineto
          26 147 rlineto
          13 hlineto
          282 219 176 254 27 hvcurveto
          1 4 0 5 5 vvcurveto
          -178 hlineto
          -1 0 -1 -1 -3 vhcurveto
          -171 -35 -123 -98 -175 hhcurveto
          204 1157 rlineto
          141 -26 87 -101 -145 vvcurveto
          -20 -1 -14 -2 -23 vhcurveto
          -698 -76 rmoveto
          46 249 128 144 185 17 -202 -1147 rcurveline
          -136 40 -78 117 176 vvcurveto
          54 5 57 8 42 vhcurveto
          endchar
        </CharString>
        <CharString name="cedilla">
          464 -226 rmoveto
          82 callsubr
          67 133 rlineto
          -133 hlineto
          -74 -142 rlineto
          endchar
        </CharString>
        <CharString name="cedillacmb">
          494 -226 rmoveto
          -17 callsubr
          67 133 rlineto
          -133 hlineto
          -74 -142 rlineto
          endchar
        </CharString>
        <CharString name="cent">
          1167 479 rmoveto
          -168 hlineto
          -95 -22 -98 -59 -131 hhcurveto
          -172 -98 102 180 32 4 39 7 38 hvcurveto
          21 121 rlineto
          181 31 116 107 162 hhcurveto
          156 87 -79 -140 1 hvcurveto
          169 hlineto
          12 186 -103 136 -180 39 32 178 rcurveline
          -171 hlineto
          -28 -163 -238 -16 -165 -150 -44 -241 rlinecurve
          -26 -149 rlineto
          -8 -50 -5 -57 -44 vvcurveto
          -197 110 -147 183 -47 vhcurveto
          -33 -186 rlineto
          171 hlineto
          30 168 214 14 152 119 32 180 rlinecurve
          endchar
        </CharString>
        <CharString name="checyrillic">
          1238 1085 -64 callgsubr
          -82 -467 rlineto
          171 hlineto
          endchar
        </CharString>
        <CharString name="chigreek">
          68 -360 rmoveto
          180 hlineto
          427 560 rlineto
          13 hlineto
          130 -404 rlineto
          -119 38 52 -47 117 hhcurveto
          36 31 5 7 24 hvcurveto
          160 callsubr
          -3 -22 -13 -2 -18 hhcurveto
          -69 -34 29 82 -26 hvcurveto
          -157 472 550 724 rlineto
          -181 hlineto
          -416 -547 rlineto
          -13 hlineto
          -124 381 rlineto
          131 -42 -48 47 -117 hhcurveto
          -36 -31 -5 -7 -24 hvcurveto
          -24 -141 rlineto
          4 19 17 1 12 hhcurveto
          73 32 -30 -97 32 hvcurveto
          148 -446 rlineto
          endchar
        </CharString>
        <CharString name="circumflex">
          819 102 callgsubr
          endchar
        </CharString>
        <CharString name="circumflexacutecmb">
          1122 1662 rmoveto
          167 hlineto
          285 308 rlineto
          -194 hlineto
          -560 -345 -86 callgsubr
          endchar
        </CharString>
        <CharString name="circumflexacutecmb.short">
          1159 1844 rmoveto
          -32 callgsubr
          276 239 rlineto
          -192 96 callgsubr
        </CharString>
        <CharString name="circumflexbelowcmb">
          504 -166 rmoveto
          -334 -342 rlineto
          203 -43 callsubr
        </CharString>
        <CharString name="circumflexcmb">
          819 102 callgsubr
          endchar
        </CharString>
        <CharString name="circumflexcmb.short">
          1051 1921 42 callsubr
        </CharString>
        <CharString name="circumflexgravecmb">
          1377 1662 rmoveto
          -151 308 rlineto
          -184 hlineto
          177 -308 rlineto
          -399 -37 -86 callgsubr
          endchar
        </CharString>
        <CharString name="circumflexgravecmb.short">
          1382 1844 62 callgsubr
        </CharString>
        <CharString name="circumflexhookabovecmb">
          820 1625 -86 callgsubr
          2 229 rmoveto
          16 33 39 9 37 hhcurveto
          62 39 -27 -45 -46 -40 -41 -64 -21 hvcurveto
          64 -93 rlineto
          111 39 65 81 96 vvcurveto
          107 -82 72 -120 -50 -52 -11 -17 -36 vhcurveto
          endchar
        </CharString>
        <CharString name="circumflexhookabovecmb.short">
          1042 1813 123 callgsubr
          -156 418 32 callsubr
          -40 -7 -11 -38 vhcurveto
          endchar
        </CharString>
        <CharString name="circumflextildecmb">
          816 1871 rmoveto
          87 39 -153 160 hhcurveto
          137 142 callsubr
          -25 -43 -59 -87 -39 151 -160 hhcurveto
          -139 186 callgsubr
          4 -246 -86 callgsubr
          endchar
        </CharString>
        <CharString name="circumflextildecmb.short">
          1042 1813 rmoveto
          -180 hlineto
          -323 -40 callsubr
          -435 423 rmoveto
          124 callsubr
          -123 hlineto
          44 callsubr
          hhcurveto
          endchar
        </CharString>
        <CharString name="colon">
          664 -6 rmoveto
          99 82 83 102 101 -82 230 callsubr
          136 768 rmoveto
          99 82 84 101 101 -82 84 -99 -99 -82 -84 -101 -101 82 -84 99 hvcurveto
          endchar
        </CharString>
        <CharString name="coloncurrency">
          622 -162 rmoveto
          86 163 rlineto
          -18 74 82 -10 91 hhcurveto
          69 71 6 11 63 hvcurveto
          28 167 rlineto
          -12 -52 -72 -6 -72 hhcurveto
          -78 -70 7 13 -60 hvcurveto
          745 1437 rlineto
          -116 hlineto
          -80 -154 -49 14 -76 10 -80 3 rlinecurve
          1 58 101 26 8 hvcurveto
          -116 hlineto
          -65 -128 -484 -24 -314 -314 -13 -481 rlinecurve
          -9 -196 55 -162 107 -109 -182 -344 rcurveline
          116 hlineto
          148 278 49 -37 57 -30 64 -22 rlinecurve
          -100 -189 rlineto
          -64 531 rmoveto
          -43 78 -20 102 3 114 6 331 220 246 320 51 rrcurveto
          -249 -1109 rmoveto
          -67 23 -56 33 -42 42 535 1024 rcurveline
          74 1 77 -6 58 -10 rrcurveto
          endchar
        </CharString>
        <CharString name="comma">
          526 -335 rmoveto
          306 714 rlineto
          -237 hlineto
          -255 -714 rlineto
          endchar
        </CharString>
        <CharString name="commaaccent">
          632 -494 20 callsubr
          -120 -361 rlineto
          endchar
        </CharString>
        <CharString name="commabelowcmb">
          580 -519 20 callsubr
          -121 -361 rlineto
          endchar
        </CharString>
        <CharString name="copyright">
          760 200 rmoveto
          288 225 229 292 293 -225 228 -288 -288 -225 -228 -293 193 callsubr
          187 236 186 callsubr
          -236 -180 -187 -228 hvcurveto
          248 508 rmoveto
          110 1 -88 81 -121 hhcurveto
          -170 -114 -127 -191 -140 91 -92 137 115 93 72 109 24 hvcurveto
          -113 hlineto
          -45 -18 -45 -29 -49 hhcurveto
          -74 -42 48 82 121 61 85 88 63 38 -29 -55 10 hvcurveto
          endchar
        </CharString>
        <CharString name="cruzeiro">
          1210 153 rmoveto
          -10 -51 -65 -6 -67 hhcurveto
          -46 -43 3 4 -43 hvcurveto
          58 322 rlineto
          165 30 111 110 137 hhcurveto
          33 45 -8 -7 17 hvcurveto
          27 159 rlineto
          6 -20 -27 4 -29 hhcurveto
          -123 -104 -74 -122 -49 hvcurveto
          -12 hlineto
          31 178 rlineto
          -150 hlineto
          -125 -704 rlineto
          -226 64 -115 155 242 vvcurveto
          390 279 280 386 99 113 -13 -19 62 vhcurveto
          32 159 rlineto
          25 -62 -113 14 -120 hhcurveto
          -521 -336 -334 -520 -406 291 -236 478 69 63 4 10 58 hvcurveto
          endchar
        </CharString>
        <CharString name="currency">
          1296 954 rmoveto
          -86 128 -194 -142 -53 54 -70 36 -78 13 rlinecurve
          -77 14 -78 -10 -69 -32 -134 199 rcurveline
          -124 -90 137 -197 -54 -54 -35 -70 -14 -81 rlinecurve
          -14 -81 9 -78 31 -69 -196 -141 rcurveline
          87 -128 195 143 53 -54 70 -37 78 -13 rlinecurve
          78 -13 77 9 68 32 134 -199 rcurveline
          122 89 -134 197 55 55 35 70 14 81 rlinecurve
          14 81 -9 77 -31 71 rrcurveto
          -401 -415 rmoveto
          -146 25 -85 127 26 147 26 147 125 89 146 -24 145 -26 85 -126 -25 -148 -27 -147 -125 -90 -145 26 rrcurveto
          endchar
        </CharString>
        <CharString name="d">
          -96 callsubr
          endchar
        </CharString>
        <CharString name="dagger">
          840 771 rmoveto
          410 -1 24 151 -409 -1 79 434 rlineto
          -144 hlineto
          -76 -434 -410 1 -24 -151 409 1 -168 -942 rlineto
          144 hlineto
          endchar
        </CharString>
        <CharString name="daggerdbl">
          1160 262 rmoveto
          25 151 -409 -1 65 359 409 -1 24 151 -408 -1 78 434 rlineto
          -144 hlineto
          -77 -434 -409 1 -24 -151 409 1 -65 -359 -409 1 -25 -151 408 1 -77 -434 rlineto
          144 hlineto
          76 434 rlineto
          endchar
        </CharString>
        <CharString name="dblgrave">
          1028 1635 rmoveto
          -187 hlineto
          190 10 callgsubr
          endchar
        </CharString>
        <CharString name="dblgravecmb">
          945 1635 rmoveto
          -188 hlineto
          191 10 callgsubr
          endchar
        </CharString>
        <CharString name="dblgravecmb.short">
          977 27 callsubr
          217 -304 rlineto
          164 hlineto
          endchar
        </CharString>
        <CharString name="dcaron">
          1373 1511 rmoveto
          -81 -458 rlineto
          122 hlineto
          118 458 rlineto
          -906 -408 rmoveto
          -219 -148 -146 -257 -45 hvcurveto
          -33 -198 rlineto
          -7 -33 -5 -47 -53 vvcurveto
          -242 128 -145 217 134 100 74 127 51 vhcurveto
          12 hlineto
          -32 -183 206 callsubr
          267 1511 rlineto
          -162 hlineto
          -113 -637 rlineto
          -9 hlineto
          139 -26 -109 90 -157 hhcurveto
          15 -156 rmoveto
          148 99 -108 -149 -37 -1 -20 -5 -28 hvcurveto
          -30 -175 rlineto
          -190 -35 -101 -97 -161 hhcurveto
          -143 -80 99 171 33 3 34 4 22 hvcurveto
          27 160 rlineto
          198 36 86 87 153 hhcurveto
          endchar
        </CharString>
        <CharString name="dcircumflexbelow">
          -96 callsubr
          -237 -1113 rmoveto
          -334 -342 rlineto
          203 -43 callsubr
        </CharString>
        <CharString name="dcommaaccent">
          -96 callsubr
          -153 -1466 47 callsubr
        </CharString>
        <CharString name="dcroat">
          984 437 rmoveto
          -183 -34 -122 -111 -174 hhcurveto
          -154 -97 104 164 35 4 41 4 23 hvcurveto
          25 145 rlineto
          191 34 105 101 165 hhcurveto
          160 118 -120 -165 -16 -1 -19 -5 -29 hvcurveto
          477 786 82 callgsubr
          22 127 rlineto
          -169 hlineto
          -23 -127 rlineto
          -220 hlineto
          -19 -112 rlineto
          219 hlineto
          -72 -405 rlineto
          -8 hlineto
          143 -27 -141 93 -163 hhcurveto
          -234 -171 -158 -256 -43 hvcurveto
          -30 -175 rlineto
          -5 -32 -6 -55 -51 vvcurveto
          -241 146 -153 233 146 127 83 126 48 vhcurveto
          13 hlineto
          -34 -191 rlineto
          167 hlineto
          224 1272 rlineto
          171 hlineto
          endchar
        </CharString>
        <CharString name="ddotaccent">
          -96 callsubr
          -2 352 -97 callsubr
          endchar
        </CharString>
        <CharString name="ddotbelow">
          -96 callsubr
          -165 -1398 -98 callsubr
          endchar
        </CharString>
        <CharString name="decyrillic">
          0 callgsubr
        </CharString>
        <CharString name="degree">
          837 838 rmoveto
          182 136 136 182 182 -136 136 -182 -182 -136 -136 -182 -182 136 -136 182 hvcurveto
          122 vmoveto
          -112 -82 83 113 113 82 83 112 112 82 -83 -113 -113 -82 -83 -112 hvcurveto
          endchar
        </CharString>
        <CharString name="deltagreek">
          1211 575 rmoveto
          211 -81 125 -234 150 vhcurveto
          -137 84 -48 44 74 vvcurveto
          80 56 41 131 108 124 -37 -66 114 vhcurveto
          25 151 rlineto
          62 -101 -140 37 -145 hhcurveto
          -184 -161 -75 -186 -96 57 -87 125 -72 hvcurveto
          -3 -12 -242 -16 -149 -129 -60 -189 rlinecurve
          -26 -81 -11 -72 -76 vvcurveto
          -284 176 -175 271 248 174 131 230 75 vhcurveto
          25 74 13 75 84 vvcurveto
          -448 305 rmoveto
          163 118 -104 -203 -34 -3 -32 -5 -31 hvcurveto
          -4 -26 -9 -40 -8 -23 rrcurveto
          -158 -51 -120 -98 -154 hhcurveto
          -176 -119 126 178 31 2 30 4 30 hvcurveto
          3 24 7 38 6 22 rrcurveto
          168 44 116 102 186 hhcurveto
          endchar
        </CharString>
        <CharString name="dieresis">
          685 1320 79 callsubr
          55 56 65 66 -55 6 callsubr
          endchar
        </CharString>
        <CharString name="dieresisacutecmb">
          815 1662 rmoveto
          -32 callgsubr
          290 308 rlineto
          -196 hlineto
          -395 -659 245 callsubr
          -55 -56 -65 -66 55 22 callsubr
        </CharString>
        <CharString name="dieresisacutecmb.short">
          819 1859 rmoveto
          179 hlineto
          272 224 rlineto
          -204 hlineto
          -334 -517 rmoveto
          64 callsubr
          388 hmoveto
          222 callgsubr
          231 callgsubr
          endchar
        </CharString>
        <CharString name="dieresisbelowcmb">
          374 -444 79 callsubr
          54 56 65 66 -54 56 -63 -62 -55 -56 -66 -65 55 -56 62 hvcurveto
          endchar
        </CharString>
        <CharString name="dieresiscaroncmb">
          1016 61 callgsubr
          -55 -56 -65 -66 55 22 callsubr
        </CharString>
        <CharString name="dieresiscaroncmb.short">
          1019 1854 rmoveto
          325 246 rlineto
          -201 hlineto
          -197 -153 rlineto
          -13 hlineto
          -145 153 rlineto
          -183 hlineto
          240 -246 rlineto
          -113 -288 rmoveto
          59 47 49 61 62 -47 231 callgsubr
          389 hmoveto
          55 callsubr
        </CharString>
        <CharString name="dieresiscmb">
          685 1299 rmoveto
          62 55 56 65 66 -55 55 -62 -63 -54 -55 -66 -65 54 23 callgsubr
        </CharString>
        <CharString name="dieresiscmb.short">
          744 1651 -70 callsubr
        </CharString>
        <CharString name="dieresisgravecmb">
          684 1311 86 callgsubr
          -395 205 callgsubr
          endchar
        </CharString>
        <CharString name="dieresisgravecmb.short">
          732 1566 rmoveto
          59 47 49 61 62 -47 231 callgsubr
          389 hmoveto
          17 callsubr
          -253 517 rmoveto
          -199 hlineto
          194 -224 225 callgsubr
          endchar
        </CharString>
        <CharString name="dieresismacroncmb">
          1087 1554 rmoveto
          176 callgsubr
          -403 hmoveto
          -63 173 callsubr
          63 86 callsubr
          hvcurveto
          -53 314 136 callsubr
        </CharString>
        <CharString name="dieresismacroncmb.short">
          1121 1786 rmoveto
          -59 -47 -48 254 callgsubr
          59 222 callgsubr
          48 -59 149 callsubr
          -60 -47 -48 254 callgsubr
          60 171 callgsubr
        </CharString>
        <CharString name="dieresistonosgreek">
          579 1305 41 callsubr
        </CharString>
        <CharString name="divide">
          1229 564 rmoveto
          26 152 rlineto
          -995 hlineto
          -26 -152 rlineto
          568 308 rmoveto
          71 53 53 229 callgsubr
          -53 70 hvcurveto
          -113 -717 rmoveto
          71 53 52 229 callgsubr
          -52 70 hvcurveto
          endchar
        </CharString>
        <CharString name="djecyrillic">
          510 899 rmoveto
          66 373 rlineto
          253 237 callsubr
          -252 hlineto
          22 127 88 callsubr
          -22 -127 241 callgsubr
          -19 -112 185 callgsubr
          -225 -1272 -27 callsubr
          113 641 rlineto
          188 34 129 119 161 hhcurveto
          141 92 -92 -137 -29 -5 -40 -7 -41 hvcurveto
          -87 -492 rlineto
          -4 hlineto
          -28 -176 rlineto
          -115 -21 -66 -51 -128 hhcurveto
          -4 -9 1 1 -2 hvcurveto
          -24 -145 rlineto
          -1 3 17 0 7 hhcurveto
          228 134 104 204 35 hvcurveto
          9 61 rlineto
          2 118 callgsubr
          12 72 5 41 35 vvcurveto
          207 -139 137 -205 -153 -126 -78 -127 -58 vhcurveto
          endchar
        </CharString>
        <CharString name="dlinebelow">
          -96 callsubr
          153 -1342 -95 callgsubr
          endchar
        </CharString>
        <CharString name="dollar">
          803 632 rmoveto
          175 -70 61 -65 -114 vvcurveto
          -154 -133 -109 -194 -4 vhcurveto
          8 721 rmoveto
          -156 65 -59 70 108 vvcurveto
          141 123 101 179 5 vhcurveto
          472 -262 rmoveto
          1 6 2 24 11 vvcurveto
          176 -135 139 -197 41 vhcurveto
          21 122 rlineto
          -119 hlineto
          -19 -109 rlineto
          -9 hlineto
          -289 -200 -167 -241 -182 102 -119 240 -91 hvcurveto
          14 -4 -96 -544 rlineto
          -144 31 -95 96 124 vvcurveto
          4 0 10 1 13 vhcurveto
          -161 -1 rlineto
          -2 -7 -1 -19 -21 vvcurveto
          -189 155 -149 221 -40 vhcurveto
          -21 -120 rlineto
          119 hlineto
          19 109 rlineto
          5 hlineto
          308 206 174 258 184 -94 109 -247 93 hvcurveto
          -32 11 91 517 rlineto
          117 -32 77 -88 -109 vvcurveto
          -20 vlineto
          endchar
        </CharString>
        <CharString name="dotaccent">
          884 39 callgsubr
          endchar
        </CharString>
        <CharString name="dotaccentcmb">
          884 39 callgsubr
          endchar
        </CharString>
        <CharString name="dotaccentcmb.short">
          949 1640 -97 callsubr
          endchar
        </CharString>
        <CharString name="dotbelowcmb">
          147 callsubr
          endchar
        </CharString>
        <CharString name="dotlessi">
          1107 hmoveto
          -92 callsubr
          endchar
        </CharString>
        <CharString name="dotlessj">
          1066 1085 -39 callsubr
          endchar
        </CharString>
        <CharString name="dotmacroncmb">
          1268 1730 -95 callgsubr
          275 -438 47 callgsubr
        </CharString>
        <CharString name="dotmacroncmb.short">
          920 89 callsubr
          endchar
        </CharString>
        <CharString name="dzecyrillic">
          -19 callsubr
          endchar
        </CharString>
        <CharString name="dzhecyrillic">
          1282 1085 rmoveto
          -169 220 callsubr
          -559 hlineto
          166 940 rlineto
          -170 -51 callgsubr
          371 88 callgsubr
          158 hlineto
          50 285 rlineto
          370 hlineto
          endchar
        </CharString>
        <CharString name="e">
          -106 callgsubr
          endchar
        </CharString>
        <CharString name="eacute">
          912 1296 rmoveto
          323 -49 callsubr
          248 -1016 -77 callgsubr
        </CharString>
        <CharString name="ebreve">
          -106 callgsubr
          -277 969 89 callgsubr
          144 -150 204 hhcurveto
          endchar
        </CharString>
        <CharString name="ecaron">
          -106 callgsubr
          -196 1016 194 callgsubr
          -212 101 callgsubr
          -132 227 rlineto
          -186 hlineto
          213 -342 rlineto
          endchar
        </CharString>
        <CharString name="ecedilla">
          466 627 -46 callgsubr
        </CharString>
        <CharString name="ecedillabreve">
          1112 1579 rmoveto
          -118 97 callsubr
          80 134 callsubr
          204 hhcurveto
          209 155 131 199 30 hvcurveto
          -789 -952 -46 callgsubr
        </CharString>
        <CharString name="ecircumflex">
          -106 callgsubr
          -333 1343 -86 callgsubr
          endchar
        </CharString>
        <CharString name="ecircumflexacute">
          -106 callgsubr
          -31 1382 rmoveto
          168 hlineto
          284 308 rlineto
          -194 hlineto
          -560 -345 7 callgsubr
          endchar
        </CharString>
        <CharString name="ecircumflexbelow">
          -106 callgsubr
          -572 -446 rmoveto
          -334 -342 rlineto
          202 hlineto
          212 90 callgsubr
        </CharString>
        <CharString name="ecircumflexdotbelow">
          -106 callgsubr
          -333 1343 -86 callgsubr
          -368 -2074 -98 callsubr
          endchar
        </CharString>
        <CharString name="ecircumflexgrave">
          -106 callgsubr
          224 1382 rmoveto
          -150 308 rlineto
          -185 hlineto
          177 -308 rlineto
          -399 -37 7 callgsubr
          endchar
        </CharString>
</ttFont>
